<svg xmlns="http://www.w3.org/2000/svg" width="155.005" height="132.21" viewBox="0 0 155.005 132.21">
  <defs>
    <style>
      .cls-1 {
        fill: #fff;
        fill-rule: evenodd;
      }
    </style>
  </defs>
  <path id="P30.svg" class="cls-1" d="M1010,1477.58l0.14,0.14c2.05,1.93,4.17,3.87,6.29,5.77l0.17,0.15-0.04,9.79-0.12.14q-1.4,1.605-2.79,3.26c1.27,1.05,2.54,2.07,3.81,3.08l0.19,0.15-0.05,10.64-0.13.15c-2.14,2.24-4.26,4.55-6.31,6.85l-0.11.12-0.17.04c-4.45.85-8.96,1.82-13.395,2.86l-0.614.15,0.007-43.24Zm-2.55,5.98-4.39.12-0.02,11.57c1.53-.15,3.06-0.29,4.59-0.43q1.38-1.65,2.75-3.27l0.02-5.32C1009.42,1485.36,1008.44,1484.46,1007.45,1483.56Zm0.97,28.88c1-1.13,2.01-2.23,3.02-3.32l0.02-5.83c-1.08-.86-2.16-1.74-3.24-2.62-1.73.19-3.46,0.4-5.19,0.61l-0.02,12.15C1004.81,1513.08,1006.61,1512.76,1008.42,1512.44Zm3.01,18.78,4.71-2.4a0.7,0.7,0,0,1,.93.31l0.58,1.13a1.9,1.9,0,0,1-1.82,2.76,2.127,2.127,0,0,1-2.08,1.74,2.1,2.1,0,0,1-1.89-1.16l-0.81-1.58,0.02-.01A0.706,0.706,0,0,1,1011.43,1531.22Zm4.06,0.14a0.541,0.541,0,0,0,.7.22,0.519,0.519,0,0,0,.22-0.69l-0.26-.51-0.92.47Zm-2.39,1.61a0.749,0.749,0,0,0,.98.31,0.718,0.718,0,0,0,.32-0.97l-0.42-.82-1.3.66Zm2.95,6.29,4.21-3.21a0.707,0.707,0,0,1,.97.13l1.78,2.33a0.662,0.662,0,0,1,.13.51,0.639,0.639,0,0,1-.26.46,0.718,0.718,0,0,1-.98-0.12l-1.35-1.77-0.99.75,1.15,1.5a0.685,0.685,0,0,1,.13.52,0.7,0.7,0,0,1-1.24.33l-1.15-1.5-0.99.76,1.35,1.77a0.7,0.7,0,0,1,.14.51,0.686,0.686,0,0,1-.27.46,0.706,0.706,0,0,1-.42.14,0.673,0.673,0,0,1-.55-0.27l-1.79-2.32v-0.02l-0.03-.03h0A0.712,0.712,0,0,1,1016.05,1539.26Zm10.98,4.02a0.727,0.727,0,0,1,.8.11,0.689,0.689,0,0,1,.2.76l-1.98,5.29a0.725,0.725,0,0,1-.67.45l-0.24-.04-0.21-.13a0.686,0.686,0,0,1-.19-0.76l0.39-1.04-1.44-1.25-0.97.52a0.71,0.71,0,0,1-.79-0.09l-0.15-.18a0.711,0.711,0,0,1,.27-0.96Zm-1.38,3.26,0.43-1.17-1.09.59Zm6.78,1.2a0.7,0.7,0,0,1,.95-0.25l1.39,0.8a2.128,2.128,0,0,1,.77,2.9,2.085,2.085,0,0,1-1.26.97,1.373,1.373,0,0,1,.05.28,1.871,1.871,0,0,1-.26,1.1c-0.07.13-.13,0.24-0.18,0.35a0.621,0.621,0,0,1,.09.48,0.687,0.687,0,0,1-.68.56l-0.14-.01a0.813,0.813,0,0,1-.24-0.1,0.848,0.848,0,0,1-.34-0.34,0.944,0.944,0,0,1-.11-0.51,2.453,2.453,0,0,1,.4-1.13,0.6,0.6,0,0,0,.07-0.27,0.656,0.656,0,0,0-.08-0.28,1.379,1.379,0,0,0-.29-0.38l-0.7-.41-0.88,1.52a0.711,0.711,0,0,1-.95.24,0.7,0.7,0,0,1-.26-0.94Zm0.92,3.01a0.749,0.749,0,0,0,.36.1,0.718,0.718,0,0,0,.62-0.36,0.711,0.711,0,0,0-.26-0.99l-0.78-.46-0.73,1.26Zm6.83,1.02a0.693,0.693,0,0,1,.89-0.41l0.99,0.36a3.3,3.3,0,0,1,1.88,1.73,3.337,3.337,0,0,1-3.03,4.74,3.42,3.42,0,0,1-1.14-.2l-0.99-.36a0.727,0.727,0,0,1-.4-0.37,0.669,0.669,0,0,1-.01-0.52Zm0.07,4.91a1.868,1.868,0,0,0,.66.11,1.941,1.941,0,0,0,.68-3.76l-0.34-.12-1.33,3.65Zm-12.69-93.17a1,1,0,0,1,0-2h16.54a1,1,0,0,1,0,2h-16.54Zm25.09,14.36,0.08-.41,10.77-.01,0.08,0.41c2.06,11.18,4.14,22.28,6.23,33.38l0.11,0.58-0.59.01q-2.61.03-5.22,0.12l-0.43.01-1.63-8.68c-2.66.07-5.35,0.17-8.02,0.29l-1.68,8.94-0.38.03q-2.61.18-5.22,0.39l-0.65.05,0.12-.64Q1049.445,1494.85,1052.65,1477.87Zm8.49,20.35q-1.485-7.8-2.94-15.67h-0.25q-1.485,7.89-2.98,15.86C1057.03,1498.34,1059.08,1498.27,1061.14,1498.22Zm-10.17,56.65a0.7,0.7,0,0,1,.97-0.14,0.611,0.611,0,0,1,.27.44,0.69,0.69,0,0,1-.12.52l-3.33,4.58a0.687,0.687,0,0,1-.56.28l-0.16-.02-0.25-.11a0.635,0.635,0,0,1-.27-0.44,0.65,0.65,0,0,1,.12-0.52Zm3.98-22.71v1.39h-3.9V1525h3.75v1.39h-2.36v2.23h1.97v1.39h-1.97v2.15h2.51Zm5.47-2.32v2.38l-1.32,1.39h-1.73l-1.31-1.39v-1.77h1.38v1.22l0.53,0.56h0.55l0.53-.56v-1.11l-2.93-2.05v-2.23l1.28-1.34h1.69l1.28,1.34v1.54h-1.38v-0.97l-0.49-.53h-0.52l-0.48.52v0.95Zm-3.93,25.57a0.676,0.676,0,0,1,.54.37l1.34,2.42,1.88-2.03a0.682,0.682,0,0,1,.6-0.22,0.709,0.709,0,0,1,.62.78l-0.65,5.25a0.7,0.7,0,0,1-.69.61l-0.09-.01a0.688,0.688,0,0,1-.6-0.77l0.39-3.14-1.09,1.17a0.664,0.664,0,0,1-.59.22,0.732,0.732,0,0,1-.56-0.36l-0.75-1.39-0.39,3.13a0.693,0.693,0,0,1-.78.6,0.682,0.682,0,0,1-.6-0.77l0.64-5.25A0.7,0.7,0,0,1,1056.49,1555.41Zm4.88-30.42h4.27v1.29h-1.44v7.27h-1.4v-7.27h-1.43v-1.29Zm7.55,31.25h0.07a3.139,3.139,0,0,1,2.27,1.07,3.518,3.518,0,0,1,.91,2.43,3.432,3.432,0,0,1-1.02,2.38,3.12,3.12,0,0,1-2.24.97h-0.07a3.246,3.246,0,0,1-2.32-1.07,3.534,3.534,0,0,1,.11-4.81A3.176,3.176,0,0,1,1068.92,1556.24Zm-1.34,4.82a1.741,1.741,0,0,0,1.29.61h0a1.793,1.793,0,0,0,1.29-.55,2.134,2.134,0,0,0,.06-2.86,1.72,1.72,0,0,0-1.26-.6l-0.04-.2h0v0.2a1.778,1.778,0,0,0-1.28.54,2.149,2.149,0,0,0-.59,1.42A2.036,2.036,0,0,0,1067.58,1561.06Zm-0.72-27.51v-8.53h2.88l1.34,1.34v5.84l-1.34,1.35h-2.88Zm2.83-6.62-0.53-.52h-0.91v5.75h0.91l0.53-.52v-4.71Zm-8.69-56.42a4.785,4.785,0,0,1-1.2-.29,5.311,5.311,0,0,1-.86-0.43,5.114,5.114,0,0,1-.9-0.71,4.678,4.678,0,0,1-.77-1c-0.06-.1-0.12-0.2-0.17-0.3a5,5,0,0,1-.53-2.25h0v-6.91a1.179,1.179,0,0,1,.09-0.46,1.2,1.2,0,0,1,1.1-.73h-0.28v-4.39h0a1.2,1.2,0,0,1,.52-0.98,1.25,1.25,0,0,1,.66-0.2h27.26a1.182,1.182,0,0,1,1.18,1.18v4.39h-0.28a1.2,1.2,0,0,1,1.2,1.19v6.91a5.025,5.025,0,0,1-5.03,5.02h-21.4A3.814,3.814,0,0,1,1061,1470.51Zm-2.6-10.97v5.07a0.58,0.58,0,1,0,1.16,0v-5.07A0.58,0.58,0,0,0,1058.4,1459.54Zm1.16-6.89h-0.58v4.13h0.58v-4.13Zm1.62,0h-0.58v4.13h0.58v-4.13Zm-0.13,15.15a2.552,2.552,0,0,1-1.27-1.43,0.584,0.584,0,0,0-1.1.39,3.711,3.711,0,0,0,1.85,2.08l0.26,0.06A0.58,0.58,0,0,0,1061.05,1467.8Zm23.88-11.02h0.59v-4.13h-0.59v4.13Zm-1.62,0h0.59v-4.13h-0.59v4.13Zm-19.56-4.13h-0.58v4.13h0.58v-4.13Zm17.58,0h-0.58v4.13h0.58v-4.13Zm-15.65,14.43a5.1,5.1,0,0,0,2.02.41,5.6,5.6,0,0,1,9.18,0,5.113,5.113,0,0,0,2.03-.41,5.343,5.343,0,0,0,3.08-6.2,0.588,0.588,0,0,0-.57-0.44l-0.07.01a0.574,0.574,0,0,0-.51.57,1.853,1.853,0,0,1-1.11,1.68,1.908,1.908,0,0,1-.73.15,1.993,1.993,0,0,1-1.72-1.11,3.228,3.228,0,0,0-2.8-1.8,2.845,2.845,0,0,0-1.14.24,2.988,2.988,0,0,0-1.05.76,2.95,2.95,0,0,0-1.04-.76,2.892,2.892,0,0,0-1.15-.24,3.24,3.24,0,0,0-2.8,1.8,1.993,1.993,0,0,1-1.72,1.11,1.823,1.823,0,0,1-.72-0.15,1.862,1.862,0,0,1-1.12-1.68,0.574,0.574,0,0,0-.51-0.57l-0.07-.01a0.577,0.577,0,0,0-.56.44A5.332,5.332,0,0,0,1065.68,1467.08Zm-0.1-3.08a3.138,3.138,0,0,0,2.73-1.72,2.1,2.1,0,0,1,1.79-1.2,1.683,1.683,0,0,1,.69.15,1.722,1.722,0,0,1,.97,1.04l0.23,0.62-0.26.81a4.257,4.257,0,0,1-4.03,2.65,3.9,3.9,0,0,1-1.57-.32,4.2,4.2,0,0,1-2.38-2.67,2.876,2.876,0,0,0,.65.39A3.087,3.087,0,0,0,1065.58,1464Zm8.21-2.77a1.718,1.718,0,0,1,.69-0.15,2.123,2.123,0,0,1,1.8,1.2A3.123,3.123,0,0,0,1079,1464a3.048,3.048,0,0,0,1.18-.25,2.673,2.673,0,0,0,.65-0.39,4.172,4.172,0,0,1-2.38,2.67,3.9,3.9,0,0,1-1.57.32,4.267,4.267,0,0,1-4.03-2.65l-0.26-.8,0.23-.63A1.722,1.722,0,0,1,1073.79,1461.23Zm14.06,16.33c2.17,1.74,4.35,3.49,6.52,5.26l0.18,0.15,0.05,12.2-0.18.15c-1.42,1.18-2.84,2.35-4.25,3.53,2.68,4.64,5.1,8.89,7.38,12.97l0.45,0.8-0.92-.06q-2.835-.195-5.67-0.34l-0.28-.01-0.13-.24q-3.27-5.715-6.53-11.29c-1.23-.03-2.46-0.05-3.69-0.07l0.01,11.24-0.51-.01c-1.72-.03-3.44-0.04-5.16-0.05h-0.5l-0.01-34.34h13.11Zm-7.09,4.99,0.01,13.01c1.5,0.01,2.99.03,4.49,0.06l3.18-2.67-0.02-7.88c-1.05-.84-2.09-1.67-3.14-2.5C1083.77,1482.56,1082.27,1482.56,1080.76,1482.55Zm-4.82,43.84h-1.14V1525h2.53v7.24h1.23v1.31h-3.85v-1.31h1.23v-5.85Zm1.02,29.97h0a0.72,0.72,0,0,1,.75.65l0.21,3.18a1.406,1.406,0,0,0,1.39,1.31l0.1-.01a1.384,1.384,0,0,0,.96-0.47,1.428,1.428,0,0,0,.34-1.01l-0.21-3.19a0.606,0.606,0,0,1,.17-0.5,0.718,0.718,0,0,1,.48-0.24h0a0.7,0.7,0,0,1,.74.65l0.21,3.19a2.767,2.767,0,0,1-.68,2.02,2.82,2.82,0,0,1-1.92.95h-0.19a2.788,2.788,0,0,1-2.78-2.6l-0.22-3.19a0.718,0.718,0,0,1,.17-0.51A0.708,0.708,0,0,1,1076.96,1556.36Zm2.6-24.07v-1.36h1.39v0.82l0.43,0.44h0.54l0.49-.48v-1.55h-1.61l-1.32-1.35v-2.47l1.32-1.35h1.69l1.3,1.35v5.94l-1.3,1.29h-1.69Zm2.85-5.4-0.5-.53h-0.53l-0.51.53v1.36l0.51,0.54h1.03v-1.9Zm5.82-1.9,1.3,1.35v5.94l-1.3,1.29h-1.69l-1.24-1.28v-1.36h1.39v0.82l0.43,0.44h0.54l0.49-.48v-1.55h-1.61l-1.32-1.35v-2.47l1.32-1.35h1.69Zm-1.62,3.26,0.51,0.54h1.03v-1.9l-0.5-.53h-0.53l-0.51.53v1.36Zm2.27,26.63a2.629,2.629,0,0,1,.49-0.04,4.286,4.286,0,0,1,1.65.41,0.668,0.668,0,0,1,.36.88,0.679,0.679,0,0,1-.87.35,2.408,2.408,0,0,0-1.4-.31,1.532,1.532,0,0,0-.83.42,0.536,0.536,0,0,0-.19.44l0.06,0.14a0.793,0.793,0,0,0,.21.14,3.055,3.055,0,0,0,1.1.18,5.038,5.038,0,0,1,1.35.16,2.26,2.26,0,0,1,1.11.63,1.618,1.618,0,0,1,.39.81,1.959,1.959,0,0,1-.57,1.68,3.044,3.044,0,0,1-1.66.85,3.076,3.076,0,0,1-.53.04,4.326,4.326,0,0,1-2.01-.55,0.673,0.673,0,0,1-.27-0.9,0.681,0.681,0,0,1,.91-0.25,2.851,2.851,0,0,0,1.67.36,1.716,1.716,0,0,0,.94-0.47,0.634,0.634,0,0,0,.22-0.53l-0.09-.17a0.643,0.643,0,0,0-.24-0.17,3.364,3.364,0,0,0-1.2-.18,4.506,4.506,0,0,1-1.27-.15,2.1,2.1,0,0,1-1.04-.6,1.623,1.623,0,0,1-.38-0.79,1.831,1.831,0,0,1,.53-1.58A2.891,2.891,0,0,1,1088.88,1554.88Zm4.48-28.41v-0.12h-1.27v0.84h-1.39v-2.2h4.05l-0.01,1.73-2.24,6.84h-1.47Zm2.11,27.15,3.66-1.11a0.7,0.7,0,0,1,.87.45,0.771,0.771,0,0,1-.05.54,0.659,0.659,0,0,1-.41.34l-1.17.36,1.34,4.38a0.69,0.69,0,0,1-.46.87l-0.2.03a0.687,0.687,0,0,1-.66-0.49l-1.34-4.39-1.17.36a0.712,0.712,0,0,1-.87-0.47,0.744,0.744,0,0,1,.05-0.53A0.729,0.729,0,0,1,1095.47,1553.62Zm5.96-92.11h16.54a1,1,0,0,1,0,2h-16.54A1,1,0,0,1,1101.43,1461.51Zm1.06,67.51h15.48a1,1,0,0,1,0,2h-15.48A1,1,0,0,1,1102.49,1529.02Zm2.42,21.17a0.74,0.74,0,0,1,.78.13l4.01,3.97a0.706,0.706,0,0,1,0,.99l-0.2.14a0.709,0.709,0,0,1-.77-0.14l-0.79-.77-1.73.79,0.08,1.11a0.681,0.681,0,0,1-.4.67l-0.23.07h-0.06a0.707,0.707,0,0,1-.7-0.65l-0.41-5.63A0.7,0.7,0,0,1,1104.91,1550.19Zm1.19,3.64,0.79-.37-0.88-.87Zm-0.5,3.12v-0.01h0v0.01Zm9.38-12.2a0.715,0.715,0,0,1-.03,1.43l-0.18-.01a2.074,2.074,0,0,0-1.19.4,2.192,2.192,0,0,0-.87,1.34,2,2,0,0,0,.34,1.49,1.969,1.969,0,0,0,1.3.81,1.464,1.464,0,0,0,.3.02,2.162,2.162,0,0,0,1.24-.38,2.086,2.086,0,0,0,.82-1.13,0.753,0.753,0,0,1,.89-0.47,0.739,0.739,0,0,1,.48.88,3.577,3.577,0,0,1-1.37,1.88,3.427,3.427,0,1,1-3.95-5.6A3.56,3.56,0,0,1,1114.98,1544.75Zm4.35-3.89,1.45,1.31,1.29-1.43-1.45-1.31a0.683,0.683,0,0,1-.04-0.97,0.705,0.705,0,0,1,.98-0.06l3.92,3.56a0.694,0.694,0,0,1,.04.98,0.7,0.7,0,0,1-.98.05l-1.45-1.31-1.29,1.42,1.45,1.31a0.7,0.7,0,0,1,.22.48,0.7,0.7,0,0,1-.69.73,0.692,0.692,0,0,1-.47-0.18l-3.92-3.55a0.7,0.7,0,0,1-.22-0.48,0.675,0.675,0,0,1,.18-0.5A0.7,0.7,0,0,1,1119.33,1540.86Zm4.72-7.16,1.5-2.52a0.716,0.716,0,0,1,.95-0.24,0.7,0.7,0,0,1,.25.95l-1.14,1.92,1.06,0.64,0.97-1.63a0.726,0.726,0,0,1,.95-0.23,0.648,0.648,0,0,1,.32.42,0.694,0.694,0,0,1-.07.53l-0.97,1.62,1.07,0.65,1.15-1.92a0.723,0.723,0,0,1,.96-0.23,0.706,0.706,0,0,1,.24.95l-1.51,2.51-0.01.02-0.04.06a0.673,0.673,0,0,1-.54.26,0.653,0.653,0,0,1-.36-0.1l-4.54-2.71A0.68,0.68,0,0,1,1124.05,1533.7Zm-57.26-102.83a3.148,3.148,0,0,1,2.34.91,3.522,3.522,0,0,1,1.07,2.35,3.431,3.431,0,0,1-.84,2.45,3.165,3.165,0,0,1-2.23,1.14h-0.16a3.234,3.234,0,0,1-2.23-.91,3.431,3.431,0,0,1-1.06-2.35,3.475,3.475,0,0,1,.82-2.45A3.219,3.219,0,0,1,1066.79,1430.87Zm-1.07,4.91a1.764,1.764,0,0,0,1.25.52h0.09a1.793,1.793,0,0,0,1.24-.65,2.072,2.072,0,0,0,.48-1.45,2.048,2.048,0,0,0-.63-1.4,1.722,1.722,0,0,0-1.21-.51h-0.08a1.772,1.772,0,0,0-1.28.64,2.1,2.1,0,0,0-.48,1.46A2.019,2.019,0,0,0,1065.72,1435.78Zm60.33,22.26-1.47.95a0.722,0.722,0,0,1-.97-0.22,0.705,0.705,0,0,1,.21-0.96l4.46-2.86a0.715,0.715,0,0,1,.96.21l0.86,1.35a2.105,2.105,0,0,1,.29,1.6,2.131,2.131,0,0,1-.93,1.34,2.083,2.083,0,0,1-1.56.28,1.309,1.309,0,0,1-.09.28,1.9,1.9,0,0,1-.73.86,2.213,2.213,0,0,0-.32.22,0.706,0.706,0,0,1-.15.48,0.659,0.659,0,0,1-.54.26,0.71,0.71,0,0,1-.44-0.15,0.95,0.95,0,0,1-.17-0.2,0.864,0.864,0,0,1-.14-0.46,1.063,1.063,0,0,1,.13-0.51,2.65,2.65,0,0,1,.87-0.81,0.471,0.471,0,0,0,.19-0.22,0.488,0.488,0,0,0,.06-0.29,1.67,1.67,0,0,0-.08-0.46Zm1.66,0.01a0.708,0.708,0,0,0,.61.33,0.628,0.628,0,0,0,.38-0.11,0.711,0.711,0,0,0,.23-1l-0.49-.76-1.22.78Zm-4.88,25.32,0.14,26.09-0.2.15q-3.135,2.385-6.3,4.69l-0.16.12-0.2-.02c-4.47-.56-9.02-1.04-13.51-1.42l-0.46-.04-0.17-35.38,14.19,0.02,0.14,0.12c2.18,1.85,4.33,3.71,6.36,5.52Zm-6.13,2.12c-1.01-.87-2.02-1.73-3.03-2.59-1.85-.02-3.69-0.05-5.53-0.08l0.14,25.43q2.79,0.255,5.58.54c0.99-.73,1.98-1.47,2.96-2.21Zm0.5-34.06a2.751,2.751,0,0,1-.9-1.94,2.8,2.8,0,0,1,.74-2l2.16-2.34a0.7,0.7,0,0,1,1.21.45,0.706,0.706,0,0,1-.18.49l-2.17,2.35a1.393,1.393,0,0,0,.09,1.97,1.441,1.441,0,0,0,1.97-.08l2.16-2.35a0.706,0.706,0,0,1,1.21.45,0.684,0.684,0,0,1-.19.5l-2.16,2.34A2.784,2.784,0,0,1,1117.2,1451.43Zm-9.14-13.02a3.2,3.2,0,0,1,2.55.17,3.12,3.12,0,0,1,1.56,1.97,3.525,3.525,0,0,1-.26,2.57,3.441,3.441,0,0,1-1.96,1.69,3.049,3.049,0,0,1-1.09.19,2.939,2.939,0,0,1-1.41-.34,3.22,3.22,0,0,1-1.61-1.98A3.534,3.534,0,0,1,1108.06,1438.41Zm-0.85,3.87a1.769,1.769,0,0,0,.89,1.12,1.742,1.742,0,0,0,1.4.07,2.1,2.1,0,0,0,1.15-1.01,2.2,2.2,0,0,0,.17-1.53,1.773,1.773,0,0,0-.87-1.09,1.8,1.8,0,0,0-.81-0.2,1.872,1.872,0,0,0-.61.11A2.094,2.094,0,0,0,1107.21,1442.28Zm-10.51-8.05a0.677,0.677,0,0,1,.4-0.36,0.69,0.69,0,0,1,.88.41l0.8,2.18,1.83-1.42a0.694,0.694,0,1,1,.86,1.09l-2.42,1.87-0.65,2.26a0.684,0.684,0,0,1-.66.5l-0.2-.02a0.693,0.693,0,0,1-.47-0.86l0.65-2.27-1.03-2.86A0.719,0.719,0,0,1,1096.7,1434.23Zm-15.67,3.5-0.22.03h-0.04a0.85,0.85,0,0,1-.46-0.16,1.12,1.12,0,0,1-.34-0.4,2.647,2.647,0,0,1-.14-1.19,0.61,0.61,0,0,0-.07-0.28,0.561,0.561,0,0,0-.2-0.21,1.444,1.444,0,0,0-.42-0.21l-0.81-.04-0.1,1.74a0.7,0.7,0,0,1-1.39-.07l0.29-5.28a0.679,0.679,0,0,1,.69-0.66l1.64,0.09a2.132,2.132,0,0,1,2,2.24,2.067,2.067,0,0,1-.68,1.43l0.17,0.23a1.919,1.919,0,0,1,.27,1.1,2.634,2.634,0,0,0-.01.39,0.654,0.654,0,0,1,.3.39A0.69,0.69,0,0,1,1081.03,1437.73Zm-1.15-5.01a0.723,0.723,0,0,0-.5-0.24l-0.9-.05-0.08,1.45,0.9,0.05h0.01a0.74,0.74,0,0,0,.76-0.68A0.754,0.754,0,0,0,1079.88,1432.72Zm0.93,4.83h0v0Zm-26.32,1.65-0.13.01a0.7,0.7,0,0,1-.68-0.57l-0.92-5.21a0.677,0.677,0,0,1,.56-0.8l2.89-.52a0.7,0.7,0,0,1,.8.56,0.714,0.714,0,0,1-.12.53,0.707,0.707,0,0,1-.44.29l-2.2.39,0.22,1.22,1.86-.33a0.7,0.7,0,0,1,.81.56,0.725,0.725,0,0,1-.12.53,0.679,0.679,0,0,1-.44.28l-1.86.33,0.34,1.92A0.7,0.7,0,0,1,1054.49,1439.2Zm-18.99.15,2.07,4.1,1.99-1.01a0.722,0.722,0,0,1,.93.32,0.7,0.7,0,0,1-.3.93l-2.6,1.31a0.747,0.747,0,0,1-.33.09,0.685,0.685,0,0,1-.62-0.39l-2.39-4.72a0.7,0.7,0,0,1,.31-0.93A0.714,0.714,0,0,1,1035.5,1439.35Zm-5.05,8.52a0.731,0.731,0,0,1,.99.11,0.7,0.7,0,0,1-.1.97l-2.28,1.86-0.01.01-0.03.02a0.676,0.676,0,0,1-.4.12,0.709,0.709,0,0,1-.54-0.25l-3.34-4.1a0.688,0.688,0,0,1,.1-0.98l2.27-1.85a0.726,0.726,0,0,1,.98.09,0.743,0.743,0,0,1,.15.52,0.685,0.685,0,0,1-.25.47l-1.73,1.41,0.79,0.96,1.47-1.19a0.724,0.724,0,0,1,.97.09,0.751,0.751,0,0,1,.16.52,0.729,0.729,0,0,1-.25.47l-1.47,1.19,0.79,0.97Zm12.59,81.15a1,1,0,0,1,0,2h-15.48a1,1,0,0,1,0-2h15.48Zm-19.55-13.35,0.21-38.17,18.33-.03-0.02,5.24-0.49.01c-3.91.05-7.81,0.11-11.72,0.18l-0.06,10.73c3.22-.2,6.48-0.38,9.71-0.53l0.52-.02-0.03,5.26-0.46.03c-3.24.19-6.52,0.42-9.77,0.67l-0.05,10.33c4.13-.49,8.32-0.91,12.46-1.26l0.55-.05-0.03,5.24-0.45.04c-6.03.58-12.13,1.34-18.12,2.24Zm-3.12-59.24a0.745,0.745,0,0,1-1,.15,0.72,0.72,0,0,1-.28-0.47,0.764,0.764,0,0,1,.14-0.52l1.04-1.42a0.709,0.709,0,0,1,1-.18l1.6,1.16,0.11,0.11,0.06,0.08a0.618,0.618,0,0,1,.13.4,3.46,3.46,0,0,1-.68,2.17,3.54,3.54,0,0,1-2.85,1.47,3.388,3.388,0,0,1-3.34-2.92,3.522,3.522,0,0,1,.65-2.59,3.564,3.564,0,0,1,1.88-1.32l0.21-.03a0.726,0.726,0,0,1,.68.52,0.707,0.707,0,0,1-.06.55,0.737,0.737,0,0,1-.44.33,2.128,2.128,0,0,0-1.12.79,2.012,2.012,0,0,0-.38,1.54,1.958,1.958,0,0,0,.78,1.33,1.91,1.91,0,0,0,1.49.33,1.989,1.989,0,0,0,1.35-.84,2.084,2.084,0,0,0,.4-0.98l-0.73-.54Zm105.48,21.02,6.63,0.02,0.12,0.31q1.755,4.455,3.49,9.06,1.455,4.38,2.9,8.86c0.95-2.86,1.91-5.75,2.86-8.69q1.725-4.53,3.43-9.19l0.12-.32,6.48,0.01-0.24.67c-3.14,8.57-6.37,17.02-9.61,25.13l0.04,15.38-0.6-.12q-2.535-.525-5.09-1l-0.41-.08-0.06-14.81c-3.1-8.19-6.3-16.21-9.77-24.53Z" transform="translate(-996.875 -1430.88)"/>
</svg>

