<svg xmlns="http://www.w3.org/2000/svg" width="144.87" height="145.63" viewBox="0 0 144.87 145.63">
  <defs>
    <style>
      .cls-1 {
        fill: #fff;
        fill-rule: evenodd;
      }
    </style>
  </defs>
  <path id="P24.svg" class="cls-1" d="M1302.94,1051h-2.88a2.5,2.5,0,0,1-2.49-2.28q-0.36.03-.69,0.03a8.3,8.3,0,0,1-8.3-8.29v-0.36a8.309,8.309,0,0,1,7.45-8.25,7.916,7.916,0,0,1,1.54-.02,2.51,2.51,0,0,1,1.52-2.08,2.433,2.433,0,0,1,.97-0.19h2.88a2.232,2.232,0,0,1,2.1,1.48l0.01,0.06-0.01,18.42A2.246,2.246,0,0,1,1302.94,1051Zm-4.77-16.11a0.3,0.3,0,0,0-.3-0.31,0.312,0.312,0,0,0-.31.31v10.77a0.312,0.312,0,0,0,.31.31,0.3,0.3,0,0,0,.3-0.31v-10.77Zm49.32,34.04-0.02.04a6.391,6.391,0,0,0-.9,3.35v0.16h-1.17v-0.15a6.813,6.813,0,0,1,.81-3.14h-1.5v-1.1h2.78v0.84Zm-7.82.71a1.587,1.587,0,0,1,1.64-1.64,1.656,1.656,0,0,1,1.64,1.84,2.616,2.616,0,0,1-2.01,2.69l-0.13.03-0.35-.96,0.16-.04a1.68,1.68,0,0,0,.8-0.44,1.582,1.582,0,0,1-.32.03A1.42,1.42,0,0,1,1339.67,1069.64Zm2.19-.02a0.546,0.546,0,0,0-.54-0.6,0.559,0.559,0,0,0-.53.61,0.533,0.533,0,0,0,.52.59A0.548,0.548,0,0,0,1341.86,1069.62Zm-7.5.02A1.587,1.587,0,0,1,1336,1068a1.656,1.656,0,0,1,1.64,1.84,2.618,2.618,0,0,1-2,2.69l-0.14.03-0.34-.96,0.16-.04a1.785,1.785,0,0,0,.8-0.44,1.655,1.655,0,0,1-.32.03A1.427,1.427,0,0,1,1334.36,1069.64Zm2.19-.02a0.54,0.54,0,0,0-.54-0.6,0.557,0.557,0,0,0-.52.61,0.533,0.533,0,0,0,.52.59A0.546,0.546,0,0,0,1336.55,1069.62Zm-6.1-.06-0.45-.96,1.1-.51h0.79v3.33h0.53v1.06h-2.19v-1.06h0.53v-2.03Zm-6.93-36.42a1.673,1.673,0,0,1,1.14.45l13.58,12.58a0.681,0.681,0,0,1-.46,1.18h-5.7a1.648,1.648,0,0,1-1.13-.45l-13.59-12.58a0.7,0.7,0,0,1-.17-0.75,0.673,0.673,0,0,1,.63-0.43h5.7Zm1.11,37.09a2.043,2.043,0,0,1-2.1,2.25h-1.6v-4.39h1.44A1.968,1.968,0,0,1,1324.63,1070.23Zm-2.26-1.07h-0.3v2.25h0.44a0.99,0.99,0,0,0,.98-1.18A0.929,0.929,0,0,0,1322.37,1069.16Zm-5.4,3.32v-3.32h-0.78v-1.07h2.7v1.07h-0.78v3.32h-1.14Zm-2.29-1.31a1.36,1.36,0,0,1-1.45,1.36,1.6,1.6,0,0,1-1.51-.86l-0.06-.12,0.92-.65,0.07,0.15a0.656,0.656,0,0,0,.59.41,0.282,0.282,0,0,0,.31-0.28,1.054,1.054,0,0,0-.55-0.55,1.741,1.741,0,0,1-1.03-1.4,1.215,1.215,0,0,1,1.25-1.2,1.3,1.3,0,0,1,1.14.61l0.08,0.11-0.79.7-0.1-.14a0.415,0.415,0,0,0-.29-0.22,0.142,0.142,0,0,0-.15.15,1.022,1.022,0,0,0,.49.44A1.88,1.88,0,0,1,1314.68,1071.17Zm-4.72-37.85,13.87,12.85a0.681,0.681,0,0,1-.46,1.18h-5.69a1.654,1.654,0,0,1-1.14-.45l-7.29-6.76a2.273,2.273,0,0,1-.75-1.69v-5.31h1A0.7,0.7,0,0,1,1309.96,1033.32Zm-0.18,38.12v1.04h-2.79v-4.39h2.79v1.04h-1.66v0.52h1.16v1.04h-1.16v0.75h1.66Zm4.85-60.07-1.15,2.61-1.15-2.61-2.84.31,1.69-2.3-1.69-2.3,2.84,0.3,1.15-2.6,1.15,2.6,2.83-.3-1.68,2.3,1.68,2.3Zm14.36,0.74-1.66,3.76-1.65-3.76-4.08.45,2.42-3.31-2.42-3.31,4.08,0.44,1.65-3.75,1.66,3.75,4.08-.44-2.42,3.31,2.42,3.31Zm16.76,34.11a0.506,0.506,0,0,1-.16.37,0.554,0.554,0,0,1-.36.15,0.518,0.518,0,0,1-.35-0.14l-13.26-12.28a0.7,0.7,0,0,1-.17-0.75,0.683,0.683,0,0,1,.63-0.43h5.7a1.673,1.673,0,0,1,1.14.45l6.09,5.64a2.339,2.339,0,0,1,.74,1.7v5.29Zm-3.41-34.98-1.15,2.61-1.15-2.61-2.84.31,1.69-2.3-1.69-2.3,2.84,0.31,1.15-2.61,1.15,2.61,2.84-.31-1.69,2.3,1.69,2.3Zm14.97,37.51q-0.33,0-.69-0.03a2.5,2.5,0,0,1-2.49,2.28h-2.88a2.239,2.239,0,0,1-2.03-1.31l-0.02-.08,0.02-18.73a2.261,2.261,0,0,1,.78-0.94,1.584,1.584,0,0,1,.38-0.21,2.144,2.144,0,0,1,.87-0.17h2.88a2.494,2.494,0,0,1,2.49,2.27q0.36-.03.69-0.03a8.305,8.305,0,0,1,8.3,8.3v0.36A8.3,8.3,0,0,1,1357.31,1048.75Zm-0.52-13.86a0.3,0.3,0,0,0-.3-0.31,0.312,0.312,0,0,0-.31.31v10.77a0.312,0.312,0,0,0,.31.31,0.3,0.3,0,0,0,.3-0.31v-10.77Zm12.35,13.68h30.29l-0.25,1.72a72.847,72.847,0,0,1-144.17,0l-0.25-1.72h30.29l0.27,1.16a42.942,42.942,0,0,0,83.55,0Zm-42.04,37.16a45.728,45.728,0,0,1-44.4-34.16h-24.45a69.847,69.847,0,0,0,137.69,0H1371.5A45.746,45.746,0,0,1,1327.1,1085.73Zm47.14-5.66-1.04,1.14-1.86-1.71-3.74-1.1,1.17-1.28,1.85,0.68v-0.01l-0.77-1.83,1.17-1.29,1.37,3.7Zm-8.05,7.54-2.86-3.55-0.84.67-0.91-1.13,2.88-2.33,0.92,1.14-0.84.68,2.86,3.55Zm-8.61,4.15,0.6-.35-1.69-2.85-0.6.36-0.7-1.17,2.53-1.5,0.7,1.16-0.6.36,1.69,2.85,0.6-.36,0.69,1.16-2.53,1.5Zm-9.78-.54,1.43-.59,1.75,4.22,1.83-.76,0.56,1.34-3.26,1.35Zm-5.09,6.5-1.35.33-0.06,1.38-1.6.39,0.47-6.3,1.52-.37,3.31,5.39-1.6.38Zm-1.02-1.78-0.21-.39c-0.01.26-.02,0.52-0.03,0.79l-0.02.36,0.61-.15Zm-9.65,4.91-0.18.01a2.067,2.067,0,0,1-2.12-2.13l-0.26-3.81,1.55-.11,0.27,3.88a0.608,0.608,0,1,0,1.18-.08l-0.27-3.88,1.56-.11,0.26,3.81a2.28,2.28,0,0,1-.54,1.77A2.155,2.155,0,0,1,1332.04,1100.85Zm48.27-41.22a2.925,2.925,0,1,1-2.93,2.92A2.923,2.923,0,0,1,1380.31,1059.63Zm-56.8,40.03,0.43,0.54-1.02.81-0.48-.6a3.012,3.012,0,0,1-1.54.23A3.074,3.074,0,1,1,1323.51,1099.66Zm-1.09-3.13a1.493,1.493,0,0,0-1.01-.56l-0.18-.01a1.51,1.51,0,0,0-1.49,1.45,1.489,1.489,0,0,0,1.32,1.76,1.21,1.21,0,0,0,.38,0l-0.35-.45,1.01-.81,0.41,0.51a1.919,1.919,0,0,0,.21-0.69A1.687,1.687,0,0,0,1322.42,1096.53Zm-16.39-4.35-1.77,4.2-1.43-.61,1.77-4.19-0.99-.42,0.56-1.35,3.42,1.44-0.57,1.34Zm-7.69-3.57a0.545,0.545,0,0,0-.2-0.46,0.185,0.185,0,0,0-.28.07,1.339,1.339,0,0,0,.26.87,2.574,2.574,0,0,1,.23,2.51,1.816,1.816,0,0,1-1.57.9,2.142,2.142,0,0,1-1.09-.32,2.213,2.213,0,0,1-1.18-2.08l0.02-.17,1.53-.12-0.02.23a0.9,0.9,0,0,0,.41.9,0.4,0.4,0,0,0,.56-0.12,1.421,1.421,0,0,0-.26-1.04,2.385,2.385,0,0,1-.22-2.36,1.587,1.587,0,0,1,1.4-.79,1.861,1.861,0,0,1,1.82,1.78l0.01,0.17-1.41.26Zm-7.77-5.77-0.46.55,1.23,1.02-0.9,1.09-1.23-1.02-0.67.8,1.75,1.46-0.9,1.09-2.94-2.44,3.84-4.63,2.94,2.44-0.9,1.09Zm-6.42-4.61a1.726,1.726,0,0,1-.55,1.76,1.862,1.862,0,0,1-1.22.49,2.377,2.377,0,0,1-1.76-.96l-1.22-1.38,4.52-3.97,1.29,1.46a1.489,1.489,0,0,1-.04,2.24A1.343,1.343,0,0,1,1284.15,1078.23Zm-1.5-.29-0.3-.34-0.93.81,0.3,0.34a0.618,0.618,0,0,0,1.04-.16A0.58,0.58,0,0,0,1282.65,1077.94Zm1.54-1.62-0.17-.19-0.59.52,0.16,0.19a0.443,0.443,0,0,0,.67-0.17A0.3,0.3,0,0,0,1284.19,1076.32Zm-10.31-10.84a2.925,2.925,0,1,1,2.92-2.93A2.934,2.934,0,0,1,1273.88,1065.48Zm95.19-34.7a42.942,42.942,0,0,0-83.95,0l-0.25,1.18h-30.2l0.22-1.69a72.836,72.836,0,0,1,144.41,0l0.22,1.69h-30.2Zm27.01-1.82a69.837,69.837,0,0,0-137.97,0h24.35a45.942,45.942,0,0,1,89.27,0h24.35Zm-45.33-39.517,2.8-5.555,2.08,1.046a2.111,2.111,0,0,1-1.91,3.765l-0.66-.334-0.9,1.789Zm3.48-2.149a0.612,0.612,0,0,0,.93-0.23,0.6,0.6,0,0,0,.05-0.5,0.8,0.8,0,0,0-.42-0.393l-0.49-.252-0.57,1.121Zm10.06,3.745a3.149,3.149,0,0,1,1.99.7A3.2,3.2,0,1,1,1364.29,991.039Zm-1.05,4.5a1.505,1.505,0,0,0,.95.345,1.681,1.681,0,0,0,1.31-.684,1.556,1.556,0,0,0-.17-2.278,1.5,1.5,0,0,0-.96-0.349,1.666,1.666,0,0,0-1.3.677,1.729,1.729,0,0,0-.41,1.23A1.5,1.5,0,0,0,1363.24,995.538Zm11.7,4.7-3.6,3.08,1.33,1.56-1.12.96-2.36-2.76,4.72-4.04Zm7.6,10.83-1.25.75-1.21-2.02-0.66.39,0.85,1.42-1.24.74-0.85-1.41-0.94.56,1.22,2.03-1.25.75-2.03-3.38,5.33-3.21Zm-46.67-30.5a0.629,0.629,0,0,0-.4-0.359,0.232,0.232,0,0,0-.25.2,1.5,1.5,0,0,0,.62.723,2.64,2.64,0,0,1,1.28,2.265,1.912,1.912,0,0,1-1.97,1.689,2.478,2.478,0,0,1-.29-0.018,2.294,2.294,0,0,1-1.99-1.47l-0.06-.161,1.39-.757,0.08,0.218a0.923,0.923,0,0,0,.76.686,0.409,0.409,0,0,0,.5-0.359,1.481,1.481,0,0,0-.69-0.873,2.5,2.5,0,0,1-1.21-2.141,1.73,1.73,0,0,1,1.96-1.472,1.85,1.85,0,0,1,1.5,1.05l0.08,0.154-1.21.834Zm-11.16,2.157-0.56.038,0.13,2-1.57.108-0.43-6.2,2.32-.158a1.949,1.949,0,0,1,2.22,1.966,2.051,2.051,0,0,1-.64,1.739l1.21,2.338-1.73.119ZM1324.52,980l-0.56.038,0.09,1.252,0.55-.038A0.633,0.633,0,1,0,1324.52,980Zm-13.7,1.013,3.81-1.049,0.38,1.4-2.27.628,0.2,0.737,1.6-.44,0.38,1.4-1.6.44,0.3,1.058,2.27-.628,0.39,1.4-3.8,1.049Zm-6.51,9.348-1.7.856-2.79-5.555,1.8-.9a1.56,1.56,0,0,1,2.23.618,1.352,1.352,0,0,1,.08,1.124,1.766,1.766,0,0,1,1.63,1,1.857,1.857,0,0,1,.11,1.537A2.6,2.6,0,0,1,1304.31,990.357Zm-2.28-4.414-0.24.12,0.38,0.749,0.23-.12A0.422,0.422,0,0,0,1302.03,985.943Zm2.16,2.419a0.657,0.657,0,0,0-.93-0.452l-0.43.217,0.58,1.15,0.42-.213A0.583,0.583,0,0,0,1304.19,988.362Zm-8.22,7.166-1.87-1.084-0.44.345,1.22,1.583-1.25.969-3.81-4.917,1.84-1.42a2,2,0,0,1,2.94.4,2.049,2.049,0,0,1,.43,1.8l2.32,1.262Zm-2.59-3.186a0.615,0.615,0,0,0-.96-0.056l-0.44.341,0.77,0.992,0.44-.341a0.794,0.794,0,0,0,.33-0.462A0.6,0.6,0,0,0,1293.38,992.342Zm-6.6,9.718-0.96,1.08,0.76,1.22-1.12,1.26-3.32-5.627,1.07-1.207,0.13,0.058,5.86,2.566-1.12,1.27Zm-1.91-.92-0.45-.21c0.16,0.23.31,0.48,0.46,0.71l0.2,0.32,0.44-.5Zm-5.05,12.87-5.32-3.22,1.05-1.72a1.653,1.653,0,0,1,1.39-.9,1.618,1.618,0,0,1,.83.24,1.388,1.388,0,0,1,.67.91,1.8,1.8,0,0,1,1.91-.02c1.06,0.65,1.24,1.81.46,3.09Zm-2.58-4.08a0.4,0.4,0,0,0-.71-0.07l-0.14.22,0.72,0.44,0.14-.23A0.351,0.351,0,0,0,1277.24,1009.93Zm2.52,0.97a0.714,0.714,0,0,0-.61-0.35,0.613,0.613,0,0,0-.53.32l-0.25.41,1.1,0.67,0.24-.4A0.621,0.621,0,0,0,1279.76,1010.9Z" transform="translate(-1254.66 -967)"/>
</svg>

