<svg xmlns="http://www.w3.org/2000/svg" width="161" height="133" viewBox="0 0 161 133">
  <defs>
    <style>
      .cls-1 {
        fill: #fff;
        fill-rule: evenodd;
      }
    </style>
  </defs>
  <path id="P28.svg" class="cls-1" d="M573.032,1431.67a67.2,67.2,0,0,1,63.894,47.06h16.606v3H634.685l-0.315-1.08a63.9,63.9,0,0,0-122.987,1.1l-0.3,1.11h-18.54v-3H508.8A66.973,66.973,0,0,1,573.032,1431.67Zm-71.124,74.5h-4.28l-0.024-.03-0.073.03a1.345,1.345,0,0,1-1.329-1.33v-14.26a1.325,1.325,0,0,1,1.329-1.33h3.434a4.594,4.594,0,0,1,3.675,7.35A5.176,5.176,0,0,1,501.908,1506.17Zm-0.943-14.24h-2.08v3.87h2.08a1.938,1.938,0,0,0,1.91-1.96A1.9,1.9,0,0,0,500.965,1491.93Zm0.943,6.55h-3.023v5h3.023A2.5,2.5,0,0,0,501.908,1498.48Zm127.977-8.36a1.34,1.34,0,0,1,1.281-.84,1.319,1.319,0,0,1,1.281.84l5.343,14.23a1.368,1.368,0,0,1-.8,1.74,1.264,1.264,0,0,1-.459.08,1.307,1.307,0,0,1-1.233-.85l-1.185-3.14h-5.874l-1.185,3.14a1.347,1.347,0,0,1-2.514-.97Zm3.239,9.4-1.958-5.19-1.959,5.19h3.917Zm-8.65,15.33a61.679,61.679,0,0,1-11.769,19.16,0.991,0.991,0,0,1-.742.33,0.964,0.964,0,0,1-.67-0.26,1,1,0,0,1-.071-1.41,59.8,59.8,0,0,0,11.388-18.54A1,1,0,0,1,624.474,1514.85ZM622.491,1471l1.187,2.18a0.621,0.621,0,0,1-.248.84,0.644,0.644,0,0,1-.845-0.24l-0.888-1.64-0.872.48,0.75,1.38a0.6,0.6,0,0,1,.046.47,0.589,0.589,0,0,1-.294.36,0.634,0.634,0,0,1-.844-0.24l-0.751-1.38-0.878.48,0.889,1.63a0.626,0.626,0,0,1-.255.84,0.58,0.58,0,0,1-.289.07,0.617,0.617,0,0,1-.549-0.32l-1.217-2.23v-0.01a0.619,0.619,0,0,1,.276-0.78l3.942-2.14A0.632,0.632,0,0,1,622.491,1471Zm-91.945-8.86,4.536,1.53a0.629,0.629,0,0,1,.391.79l-0.108.19a0.62,0.62,0,0,1-.672.2l-0.868-.3-0.993,1.22,0.461,0.79a0.625,0.625,0,0,1-.061.7l-0.158.14a0.627,0.627,0,0,1-.859-0.21l-2.409-4.13a0.639,0.639,0,0,1,.072-0.72A0.612,0.612,0,0,1,530.546,1462.14Zm1.617,2.5,0.413-.51-0.879-.29Zm5.165,29.81a5.124,5.124,0,0,1-1.886,3.96,3.734,3.734,0,0,1,.847.89,4.589,4.589,0,0,1,.8,2.61,6.126,6.126,0,0,0,.1,1.43,1.3,1.3,0,0,1,.846.82,1.332,1.332,0,0,1-.846,1.69,1.823,1.823,0,0,1-.532.08h-0.024a1.747,1.747,0,0,1-.943-0.27,2.345,2.345,0,0,1-.773-0.85,6.48,6.48,0,0,1-.508-2.9,2.054,2.054,0,0,0-.29-1.04,2.368,2.368,0,0,0-.726-0.7,4.881,4.881,0,0,0-1.354-.58h-2.852v5.25a1.35,1.35,0,0,1-1.354,1.33,1.33,1.33,0,0,1-1.33-1.33v-14.26a1.311,1.311,0,0,1,1.33-1.33h4.327A5.169,5.169,0,0,1,537.328,1494.45Zm-8.147,2.46h2.973a2.49,2.49,0,1,0,0-4.98h-2.973v4.98Zm-5.029-26.29a1.651,1.651,0,0,1,1.426-.83,1.679,1.679,0,0,1,.818.22,1.64,1.64,0,0,1,.6.59,1.866,1.866,0,0,1,1.582.11,1.822,1.822,0,0,1,.859,1.11,1.794,1.794,0,0,1-.178,1.38l-0.734,1.27a0.614,0.614,0,0,1-.489.24,0.555,0.555,0,0,1-.3-0.09l-3.888-2.23a0.589,0.589,0,0,1-.29-0.37,0.62,0.62,0,0,1,.062-0.47Zm3.656,2.62,0.373-.65a0.588,0.588,0,0,0-.222-0.8,0.6,0.6,0,0,0-.8.21l-0.372.65Zm-2.1-1.21,0.226-.39a0.4,0.4,0,0,0-.161-0.55,0.409,0.409,0,0,0-.547.14l-0.225.4Zm22.355,34.14h-4.279l-0.025-.03-0.073.03a1.346,1.346,0,0,1-1.329-1.33v-14.26a1.326,1.326,0,0,1,1.329-1.33h3.434a4.594,4.594,0,0,1,3.675,7.35A5.176,5.176,0,0,1,548.067,1506.17Zm-0.943-14.24h-2.08v3.87h2.08a1.938,1.938,0,0,0,1.91-1.96A1.9,1.9,0,0,0,547.124,1491.93Zm0.943,6.55h-3.023v5h3.023A2.5,2.5,0,0,0,548.067,1498.48Zm6.829-31.88a0.567,0.567,0,0,1,.544-0.43l0.066,0.01a0.557,0.557,0,0,1,.5.55,4.21,4.21,0,0,0,4.184,4.17,4.473,4.473,0,0,0,3.875-2.49,5.773,5.773,0,0,1,4.984-3.22,5.129,5.129,0,0,1,4.293,2.35,5.126,5.126,0,0,1,4.293-2.35,5.773,5.773,0,0,1,4.984,3.22,4.471,4.471,0,0,0,3.874,2.49,4.21,4.21,0,0,0,4.184-4.17,0.557,0.557,0,0,1,.5-0.55l0.067-.01a0.568,0.568,0,0,1,.544.43,9.883,9.883,0,0,1-5.705,11.48,9.357,9.357,0,0,1-3.734.75,10.187,10.187,0,0,1-9-5.23,10.188,10.188,0,0,1-9,5.23,9.362,9.362,0,0,1-3.735-.75A9.884,9.884,0,0,1,554.9,1466.6Zm34.614,4.7a0.28,0.28,0,0,0-.4,0,5.257,5.257,0,0,1-3.858,1.42c-4.485,0-5.065-3.94-5.106-5.64a0.267,0.267,0,0,0-.287-0.27,0.278,0.278,0,0,0-.274.29c0.035,1.45.548,6.18,5.667,6.18a5.8,5.8,0,0,0,4.254-1.59A0.273,0.273,0,0,0,589.51,1471.3Zm-9.791,4.51a6.745,6.745,0,0,0,3.353.87,9.424,9.424,0,0,0,7.1-3.55,0.28,0.28,0,0,0-.452-0.33,8.15,8.15,0,0,1-3.094,2.45,6.989,6.989,0,0,1-6.631.07c-2.35-1.33-3.9-4.25-4.239-8.02a0.283,0.283,0,0,0-.3-0.26,0.286,0.286,0,0,0-.254.31C575.563,1471.36,577.169,1474.37,579.719,1475.81Zm-12.908-9a0.273,0.273,0,0,0-.287.27c-0.041,1.7-.62,5.64-5.106,5.64a5.26,5.26,0,0,1-3.858-1.42,0.279,0.279,0,0,0-.4,0,0.272,0.272,0,0,0,0,.39,5.793,5.793,0,0,0,4.253,1.59c5.12,0,5.632-4.73,5.667-6.18A0.278,0.278,0,0,0,566.811,1466.81Zm-10.309,6.32a9.424,9.424,0,0,0,7.1,3.55,6.752,6.752,0,0,0,3.354-.87c2.55-1.44,4.156-4.45,4.521-8.46a0.28,0.28,0,1,0-.558-0.05c-0.344,3.77-1.889,6.69-4.24,8.02a6.987,6.987,0,0,1-6.63-.07,8.134,8.134,0,0,1-3.094-2.45A0.28,0.28,0,1,0,556.5,1473.13Zm10.065,30.35a1.345,1.345,0,0,1,0,2.69h-7.833l-0.048-.03-0.024.03a1.329,1.329,0,0,1-1.33-1.33v-14.26a1.311,1.311,0,0,1,1.33-1.33h7.9a1.341,1.341,0,0,1,1.33,1.33,1.359,1.359,0,0,1-1.33,1.35h-6.551v4.43h5.633a1.34,1.34,0,0,1,0,2.68h-5.633v4.44h6.551Zm25.211,25.9a0.559,0.559,0,0,1-.544.42h-0.067a0.567,0.567,0,0,1-.5-0.56,4.175,4.175,0,0,0-2.529-3.81,4.043,4.043,0,0,0-1.655-.35,4.48,4.48,0,0,0-3.874,2.48,5.784,5.784,0,0,1-4.984,3.23,5.126,5.126,0,0,1-4.293-2.35,5.129,5.129,0,0,1-4.293,2.35,5.784,5.784,0,0,1-4.984-3.23,4.481,4.481,0,0,0-3.875-2.48,4.043,4.043,0,0,0-1.655.35,4.175,4.175,0,0,0-2.529,3.81,0.567,0.567,0,0,1-.5.56H555.44a0.558,0.558,0,0,1-.544-0.42,9.879,9.879,0,0,1,5.7-11.48,9.368,9.368,0,0,1,3.734-.76,10.2,10.2,0,0,1,9,5.24,10.2,10.2,0,0,1,9-5.24,9.364,9.364,0,0,1,3.734.76A9.878,9.878,0,0,1,591.778,1529.38Zm-34.614-4.7a0.279,0.279,0,0,0,.4,0,5.26,5.26,0,0,1,3.858-1.42c4.486,0,5.065,3.94,5.106,5.63a0.275,0.275,0,0,0,.287.28,0.29,0.29,0,0,0,.274-0.29c-0.035-1.45-.547-6.18-5.667-6.18a5.787,5.787,0,0,0-4.253,1.58A0.284,0.284,0,0,0,557.164,1524.68Zm9.791-4.52a6.752,6.752,0,0,0-3.354-.87,8.744,8.744,0,0,0-3.8.93,8.562,8.562,0,0,0-3.3,2.63,0.279,0.279,0,0,0,.059.39,0.288,0.288,0,0,0,.393-0.06,8.06,8.06,0,0,1,3.094-2.46,7.014,7.014,0,0,1,6.63-.07c2.351,1.33,3.9,4.26,4.24,8.03a0.28,0.28,0,0,0,.3.25,0.276,0.276,0,0,0,.254-0.3C571.111,1524.62,569.505,1521.61,566.955,1520.16Zm12.907,9.01a0.273,0.273,0,0,0,.287-0.28c0.041-1.69.621-5.63,5.106-5.63a5.258,5.258,0,0,1,3.858,1.42,0.28,0.28,0,0,0,.4,0,0.286,0.286,0,0,0,0-.4,5.791,5.791,0,0,0-4.254-1.58c-5.119,0-5.632,4.73-5.667,6.18A0.291,0.291,0,0,0,579.862,1529.17Zm-0.143-9.01c-2.55,1.45-4.156,4.46-4.522,8.47a0.277,0.277,0,0,0,.254.3,0.283,0.283,0,0,0,.3-0.25c0.343-3.77,1.889-6.7,4.239-8.03a7.016,7.016,0,0,1,6.631.07,8.075,8.075,0,0,1,3.094,2.46,0.286,0.286,0,0,0,.392.06,0.278,0.278,0,0,0,.06-0.39,8.565,8.565,0,0,0-3.3-2.63,8.741,8.741,0,0,0-3.8-.93A6.745,6.745,0,0,0,579.719,1520.16Zm3.671-16a1.332,1.332,0,0,1-.846,1.69,1.823,1.823,0,0,1-.532.08h-0.024a1.747,1.747,0,0,1-.943-0.27,2.345,2.345,0,0,1-.773-0.85,6.48,6.48,0,0,1-.508-2.9,2.054,2.054,0,0,0-.29-1.04,2.368,2.368,0,0,0-.726-0.7,4.881,4.881,0,0,0-1.354-.58h-2.852v5.25a1.351,1.351,0,0,1-1.354,1.33,1.33,1.33,0,0,1-1.33-1.33v-14.26a1.311,1.311,0,0,1,1.33-1.33h4.327a5.168,5.168,0,0,1,3.288,9.16,3.754,3.754,0,0,1,.847.89,4.589,4.589,0,0,1,.8,2.61,6.126,6.126,0,0,0,.1,1.43A1.3,1.3,0,0,1,583.39,1504.16Zm-5.875-12.23h-2.973v4.98h2.973A2.49,2.49,0,1,0,577.515,1491.93Zm12.994,2.95a8.219,8.219,0,0,0,3.023,1.06h0.048a14.587,14.587,0,0,1,3.336,1.02,5.589,5.589,0,0,1,2.418,2.01,3.9,3.9,0,0,1,.58,2.05,4.693,4.693,0,0,1-2.079,3.75,7.63,7.63,0,0,1-4.473,1.37,10.442,10.442,0,0,1-6.189-2.41,1.293,1.293,0,0,1-.193-1.77,1.266,1.266,0,0,1,1.764-.17,7.851,7.851,0,0,0,4.618,1.86,5.221,5.221,0,0,0,3.022-.89,2.18,2.18,0,0,0,1.04-1.74,1.375,1.375,0,0,0-.218-0.77,2.2,2.2,0,0,0-.725-0.73,9.552,9.552,0,0,0-3.312-1.13H593.12a12.963,12.963,0,0,1-3.118-.95,5.194,5.194,0,0,1-2.249-1.88,3.721,3.721,0,0,1-.556-1.98,4.465,4.465,0,0,1,1.934-3.53,7.164,7.164,0,0,1,4.183-1.28,9.458,9.458,0,0,1,5.271,1.93,1.25,1.25,0,0,1,.338,1.72,1.219,1.219,0,0,1-1.717.36,7.033,7.033,0,0,0-3.892-1.55,4.644,4.644,0,0,0-2.708.82,1.94,1.94,0,0,0-.919,1.53,1.143,1.143,0,0,0,.17.67A2.262,2.262,0,0,0,590.509,1494.88Zm26.092,11.29h-4.279l-0.025-.03-0.072.03a1.346,1.346,0,0,1-1.33-1.33v-14.26a1.326,1.326,0,0,1,1.33-1.33h3.433a4.593,4.593,0,0,1,3.675,7.35A5.175,5.175,0,0,1,616.6,1506.17Zm-0.943-14.24h-2.079v3.87h2.079a1.938,1.938,0,0,0,1.91-1.96A1.9,1.9,0,0,0,615.658,1491.93Zm0.943,6.55h-3.022v5H616.6A2.5,2.5,0,0,0,616.6,1498.48Zm-17.1,47.65a0.684,0.684,0,0,1,.883.27,0.657,0.657,0,0,1-.263.88l-2.35,1.27h-0.01l-0.014.01a0.7,0.7,0,0,1-.284.07,0.649,0.649,0,0,1-.571-0.34l-2.285-4.24a0.657,0.657,0,0,1-.053-0.5,0.639,0.639,0,0,1,.316-0.38l2.349-1.27a0.667,0.667,0,0,1,.879.27,0.652,0.652,0,0,1,.05.5,0.66,0.66,0,0,1-.309.38l-1.771.96,0.519,0.96,1.5-.81a0.676,0.676,0,0,1,.879.27,0.646,0.646,0,0,1-.259.88l-1.5.81,0.523,0.97Zm-12.992,6.75-0.187.03a0.65,0.65,0,0,1-.621-0.47l-1.356-4.54a0.646,0.646,0,0,1,.1-0.6,0.658,0.658,0,0,1,.9-0.12l3.08,2.37-0.785-2.63a0.643,0.643,0,0,1,.431-0.8,0.658,0.658,0,0,1,.8.43l1.356,4.54a0.649,0.649,0,0,1-.437.81,0.641,0.641,0,0,1-.535-0.09l-0.087-.06-3.027-2.33,0.792,2.65A0.659,0.659,0,0,1,586.509,1552.88Zm-9.078-4.58a0.649,0.649,0,0,1,.653.59l0.458,4.78a0.631,0.631,0,0,1-.145.47,0.659,0.659,0,0,1-.447.24h-0.065a0.642,0.642,0,0,1-.642-0.58l-0.459-4.79a0.649,0.649,0,0,1,.584-0.71h0.063Zm0.454,5.88h0Zm-7.605-.65a0.654,0.654,0,0,1-.493,1.08h-0.049l-2.634-.22a0.652,0.652,0,0,1-.619-0.7l0.387-4.79a0.651,0.651,0,0,1,.646-0.6h0.052a0.659,0.659,0,0,1,.6.7l-0.334,4.14,2,0.17A0.632,0.632,0,0,1,570.28,1553.53Zm-0.493.87h0v0Zm-13.7-8.44a0.638,0.638,0,0,1,.821.4l1.265,3.66,0.795-2.62a0.644,0.644,0,0,1,1.234.37l-1.374,4.54a0.656,0.656,0,0,1-.624.46l-0.185-.03a0.637,0.637,0,0,1-.4-0.37l-0.038-.1-1.24-3.6-0.8,2.64a0.663,0.663,0,0,1-.8.44,0.654,0.654,0,0,1-.433-0.81l1.374-4.54A0.635,0.635,0,0,1,556.085,1545.96Zm-10.557-4.5a2.961,2.961,0,0,1,2.325.27,2.842,2.842,0,0,1,1.346,1.86,3.2,3.2,0,0,1-.343,2.34,3.239,3.239,0,0,1-1.865,1.47,3.1,3.1,0,0,1-.866.13,2.776,2.776,0,0,1-1.416-.38,2.926,2.926,0,0,1-1.387-1.88,3.15,3.15,0,0,1,.357-2.33A3.218,3.218,0,0,1,545.528,1541.46Zm-0.908,3.5a1.548,1.548,0,0,0,2.008,1.16,1.859,1.859,0,0,0,1.076-.86,1.886,1.886,0,0,0,.214-1.36,1.537,1.537,0,0,0-.731-1.02,1.5,1.5,0,0,0-.792-0.22,1.64,1.64,0,0,0-.484.08A1.893,1.893,0,0,0,544.62,1544.96Zm-11.806-29.76a0.992,0.992,0,0,1,.842-0.46h11.6a1,1,0,1,1,0,1.99H535.25a41.883,41.883,0,0,0,75.3-1.24h-9.733a1,1,0,0,1,0-2H612.09a1,1,0,0,1,.921,1.39,43.889,43.889,0,0,1-80.263,1.27A0.982,0.982,0,0,1,532.814,1515.2Zm-10.515-9.11a1.264,1.264,0,0,1-.459.08,1.307,1.307,0,0,1-1.233-.85l-1.185-3.14h-5.875l-1.184,3.14a1.348,1.348,0,0,1-2.515-.97l5.343-14.23a1.341,1.341,0,0,1,1.281-.84,1.32,1.32,0,0,1,1.282.84l5.343,14.23A1.369,1.369,0,0,1,522.3,1506.09Zm-5.827-11.76-1.958,5.19h3.917Zm16.176,38.55a1,1,0,0,1-1.409-.11,61.894,61.894,0,0,1-9.956-16.14,1,1,0,0,1,1.841-.78,59.863,59.863,0,0,0,9.634,15.62A1,1,0,0,1,532.648,1532.88Zm7.089-72.67a0.6,0.6,0,0,1-.872-0.06l-2.934-3.39a0.611,0.611,0,0,1,.064-0.87l1.029-.89a1.817,1.817,0,0,1,1.193-.45,1.858,1.858,0,0,1,1.389.64,1.8,1.8,0,0,1,.437,1.27l0.217,0.04a1.6,1.6,0,0,1,.825.52l0.211,0.22a0.692,0.692,0,0,1,.423.07,0.631,0.631,0,0,1,.221.86l-0.153.17a0.672,0.672,0,0,1-.388.18,0.819,0.819,0,0,1-.453-0.05,2.221,2.221,0,0,1-.8-0.64l-0.189-.13a0.8,0.8,0,0,0-.234-0.01,1.373,1.373,0,0,0-.372.12l-0.492.43,0.949,1.1A0.614,0.614,0,0,1,539.737,1460.21Zm-1.072-4.21a0.612,0.612,0,0,0-.827-0.06l-0.556.48,0.762,0.88,0.556-.48A0.584,0.584,0,0,0,538.665,1456Zm8.49-1.4-0.012.01-0.013.01a0.732,0.732,0,0,1-.291.07,0.634,0.634,0,0,1-.534-0.3l-2.295-3.85a0.625,0.625,0,0,1,.214-0.85l0.928-.55a1.644,1.644,0,0,1,2.485,1.38,1.8,1.8,0,0,1,1.327.87,1.829,1.829,0,0,1-.63,2.51Zm-0.818-4.25a0.4,0.4,0,0,0-.549-0.14l-0.389.23,0.417,0.7,0.39-.23a0.4,0.4,0,0,0,.18-0.25A0.41,0.41,0,0,0,546.337,1450.35Zm1.559,1.68a0.6,0.6,0,0,0-.8-0.2l-0.64.38,0.6,1,0.644-.38A0.582,0.582,0,0,0,547.9,1452.03Zm13.671-3.57-0.121.01a0.623,0.623,0,0,1-.607-0.49l-0.891-4.39a0.618,0.618,0,0,1,.482-0.73l0.141-.02a0.6,0.6,0,0,1,.424.17l1.69,1.56,0.95-2.1a0.6,0.6,0,0,1,.443-0.35l0.121-.01a0.623,0.623,0,0,1,.622.49l0.89,4.39a0.63,0.63,0,0,1-.489.73,0.621,0.621,0,0,1-.729-0.49l-0.512-2.52-0.515,1.14a0.627,0.627,0,0,1-.442.35l-0.145.02a0.651,0.651,0,0,1-.422-0.16l-0.912-.85,0.512,2.52A0.626,0.626,0,0,1,561.567,1448.46Zm12.743-1.78-0.332-.85-1.57.02-0.313.86a0.609,0.609,0,0,1-.577.4H571.51l-0.2-.03a0.624,0.624,0,0,1-.387-0.79l1.627-4.5a0.63,0.63,0,0,1,.576-0.4h0a0.633,0.633,0,0,1,.6.38l1.735,4.46a0.634,0.634,0,0,1-.357.81l-0.214.03A0.6,0.6,0,0,1,574.31,1446.68Zm-2.8.23v0h0Zm1.654-3.17-0.316.87,0.653-.01Zm9.827,1.91a0.637,0.637,0,0,1-.1-0.48,0.629,0.629,0,0,1,.743-0.49l1.47,0.29a0.64,0.64,0,0,1,.522.75l-0.327,1.64-0.046.13-0.038.08a0.557,0.557,0,0,1-.28.25,2.965,2.965,0,0,1-1.343.32,2.892,2.892,0,0,1-.586-0.06,2.931,2.931,0,0,1,.543-5.82,3.055,3.055,0,0,1,.6.06,2.967,2.967,0,0,1,1.7.99,0.617,0.617,0,0,1,.158.45,0.667,0.667,0,0,1-.215.45,0.66,0.66,0,0,1-.9-0.08,1.817,1.817,0,0,0-.984-0.57,1.717,1.717,0,0,0-1.3.25,1.62,1.62,0,0,0-.733,1.06,1.6,1.6,0,0,0,.272,1.24,1.683,1.683,0,0,0,1.11.73,1.824,1.824,0,0,0,.866-0.04l0.141-.71-0.871-.17A0.629,0.629,0,0,1,582.991,1445.65Zm8.53,4.58a0.634,0.634,0,0,1-.691.13l-0.178-.11a0.623,0.623,0,0,1-.033-0.88l3.3-3.47a0.626,0.626,0,0,1,.706-0.13,0.61,0.61,0,0,1,.381.58l-0.205,4.79a0.636,0.636,0,0,1-.628.59h-0.025l-0.212-.05a0.612,0.612,0,0,1-.375-0.59l0.038-.91-1.447-.62Zm2.655,1.3h0Zm-0.516-2.67,0.038-.93-0.641.67Zm11.985,3.3,0.01,0.07,0.01,0.13,0.02,0.09h-0.01l-0.036.06-0.022.06-0.063.11-0.051.06h0l-0.062.06-0.116.08-0.069.04-4.078,1.45,1.7,1.15a0.645,0.645,0,0,1,.264.4,0.621,0.621,0,0,1-.1.47,0.613,0.613,0,0,1-.509.27,0.649,0.649,0,0,1-.356-0.11l-2.715-1.83-0.072-.06-0.117-.1-0.073-.25,0-.01,0-.01-0.018-.12,0.02-.04,0.013-.08,0.072-.17,0.064-.09,0.16-.19,0.076,0.03,0.108-.06,0.017,0.02,3.967-1.43-1.708-1.15a0.622,0.622,0,0,1,.7-1.03l2.813,1.91,0.036,0.04,0.067,0.04,0,0.01v0.01l0.04,0.07-0.012.02,0.026,0.07Zm2.031,8.77a0.628,0.628,0,0,1-.431-0.17,0.608,0.608,0,0,1-.029-0.87l3.06-3.28a0.638,0.638,0,0,1,.872-0.03,0.624,0.624,0,0,1,.036.88l-3.06,3.28A0.623,0.623,0,0,1,607.676,1460.93Zm5.256,20.19a0.992,0.992,0,0,1-.842.46H600.819a1,1,0,1,1,0-1.99H610.5a41.883,41.883,0,0,0-75.3,1.24h10.063a1,1,0,0,1,0,2h-11.6a1,1,0,0,1-.921-1.39A43.882,43.882,0,0,1,613,1480.17,0.985,0.985,0,0,1,612.932,1481.12Zm5.381-16.41a0.615,0.615,0,0,1,.125.46,0.583,0.583,0,0,1-.226.4l-3.483,2.71a0.579,0.579,0,0,1-.378.13,0.609,0.609,0,0,1-.489-0.23,0.628,0.628,0,0,1-.109-0.51l0.028-.1,0.983-3.36-2,1.55a0.638,0.638,0,0,1-.862-0.1,0.62,0.62,0,0,1,.108-0.87l3.482-2.71a0.612,0.612,0,0,1,.982.64l-1,3.43,1.982-1.54A0.631,0.631,0,0,1,618.313,1464.71Zm27.062,41.46a1.341,1.341,0,0,1-1.329-1.33v-6.53l-4.908-6.79a1.262,1.262,0,0,1,.266-1.83,1.28,1.28,0,0,1,1.837.29l4.134,5.65,4.134-5.65a1.323,1.323,0,0,1,2.152,1.54l-4.956,6.79v6.53A1.311,1.311,0,0,1,645.375,1506.17Zm-134,9.5a63.9,63.9,0,0,0,122.987-1.1l0.3-1.11h18.869v3H636.947a66.9,66.9,0,0,1-128.127,1.13H492.543v-3h18.518Z" transform="translate(-492.531 -1431.66)"/>
</svg>

