<svg version="1.1" baseProfile="full" xmlns="http://www.w3.org/2000/svg" xmlns:xlink="http://www.w3.org/1999/xlink" xmlns:ev="http://www.w3.org/2001/xml-events" xml:space="preserve" x="0px" y="0px" width="22px" height="18px"  viewBox="0 0 22 18" preserveAspectRatio="none" shape-rendering="geometricPrecision"><path fill="#bda180" d="M20,18H2c-1.1,0-2-0.9-2-2V2c0-1.1,0.9-2,2-2h18c1.1,0,2,0.9,2,2v14C22,17.1,21.1,18,20,18z M8,1H5v1h3V1zM17,1h-3v1h3V1z M21,5H1v10.5C1,16.3,1.7,17,2.5,17h17c0.8,0,1.5-0.7,1.5-1.5V5z M16,12h2v2h-2V12z M16,9h2v2h-2V9z M13,12h2v2h-2V12z M13,9h2v2h-2V9z M10,12h2v2h-2V12z M10,9h2v2h-2V9z M7,12h2v2H7V12z M7,9h2v2H7V9z M4,12h2v2H4V12z M4,9h2v2H4V9z"/></svg>
