<svg xmlns="http://www.w3.org/2000/svg" width="148.938" height="138.06" viewBox="0 0 148.938 138.06">
  <defs>
    <style>
      .cls-1 {
        fill: #fff;
        fill-rule: evenodd;
      }
    </style>
  </defs>
  <path id="P29.svg" class="cls-1" d="M860.871,1456.3h2.5v2h-2.5v-2Zm2.5,75.94h-2.5v-2h2.5v2Zm-5.895,13.21h-0.314a0.249,0.249,0,0,1-.25-0.25v-5.89a0.255,0.255,0,0,1,.25-0.25h0.683a1.186,1.186,0,0,1,.928.31,1.21,1.21,0,0,1,.269.36,1.336,1.336,0,0,1,.082.39v1.5a1.081,1.081,0,0,1-.355.77c-0.1.08-.181,0.14-0.255,0.19l0.62,2.47,0.038,0.14a0.247,0.247,0,0,1-.25.24H858.8l-0.129.05-0.079.01-0.12-.03-0.122-.16-0.628-2.49v2.39A0.249,0.249,0,0,1,857.476,1545.45Zm0.509-3.58a0.3,0.3,0,0,0,.319-0.24l0.006-1.45a0.278,0.278,0,0,0-.237-0.29l-0.116-.01h-0.231v1.99h0.259Zm3.894-70.25v1.6a0.5,0.5,0,0,1-.5.5h-6.273v11.25h2.8a0.5,0.5,0,0,1,.5.5v1.56a0.5,0.5,0,0,1-.5.5h-2.8v11.26h6.273a0.5,0.5,0,0,1,.5.5v1.6a0.5,0.5,0,0,1-.5.5h-8.333a0.5,0.5,0,0,1-.5-0.5v-29.27a0.5,0.5,0,0,1,.5-0.5h8.333A0.5,0.5,0,0,1,861.879,1471.62ZM848.8,1545.45h-0.3a0.246,0.246,0,0,1-.248-0.21l-0.728-5.89,0.061-.19,0.187-.09H848.1a0.256,0.256,0,0,1,.248.22l0.313,2.52,0.314-2.52a0.247,0.247,0,0,1,.248-0.22h0.315l0.187,0.08,0.06,0.2-0.731,5.89A0.246,0.246,0,0,1,848.8,1545.45Zm2-89.15h5.034v2H850.8v-2Zm-0.968,63.51h-0.023a1.077,1.077,0,0,1-1.038-.75,1.09,1.09,0,0,1-.054-0.33v-0.14a0.249,0.249,0,0,1,.25-0.25h0.314a0.249,0.249,0,0,1,.25.25,0.388,0.388,0,0,0,.21.4h0.112a0.269,0.269,0,0,0,.249-0.2,0.784,0.784,0,0,0,.009-0.18v-1.58h-0.287a1.113,1.113,0,0,1-1.056-.76,1.942,1.942,0,0,1-.059-0.5v-1.07a1.123,1.123,0,0,1,.344-0.96,0.992,0.992,0,0,1,.756-0.32,1.033,1.033,0,0,1,.861.4,1.269,1.269,0,0,1,.255.67v4.27a1.044,1.044,0,0,1-.457.84A1.029,1.029,0,0,1,849.836,1519.81Zm0.279-5.19c-0.027-.33-0.17-0.38-0.305-0.39a0.338,0.338,0,0,0-.251.17,0.79,0.79,0,0,0-.024.22v1.18a0.406,0.406,0,0,0,.112.34l0.181,0.07h0.287v-1.59Zm3.334-.62v-0.32a0.249,0.249,0,0,1,.25-0.25h1.727l0.2,0.09,0.045,0.21-0.618,2.5h0.09a0.249,0.249,0,0,1,.25.25v0.31a0.249,0.249,0,0,1-.25.25h-0.289l-0.648,2.58a0.252,0.252,0,0,1-.242.19h-0.334l-0.2-.09-0.045-.22,0.613-2.46h-0.085a0.249,0.249,0,0,1-.25-0.25v-0.31a0.249,0.249,0,0,1,.25-0.25h0.29l0.491-1.98h-1A0.255,0.255,0,0,1,853.449,1514Zm-2.645,16.24h5.034v2H850.8v-2Zm3.338,14.39a0.255,0.255,0,0,1,.25.25v0.33a0.247,0.247,0,0,1-.25.24h-1.676a0.247,0.247,0,0,1-.25-0.24v-5.89a0.249,0.249,0,0,1,.25-0.25h1.676a0.249,0.249,0,0,1,.25.25v0.32a0.249,0.249,0,0,1-.25.25H853.03v1.96h0.413a0.255,0.255,0,0,1,.25.25v0.32a0.249,0.249,0,0,1-.25.25H853.03v1.96h1.112Zm-14.051-29.96v-0.32a0.249,0.249,0,0,1,.25-0.25h0.127a0.287,0.287,0,0,0,.254-0.16l0.032-.1v-0.16a0.249,0.249,0,0,1,.25-0.25h0.321a0.249,0.249,0,0,1,.25.25v5.88a0.249,0.249,0,0,1-.25.25H841a0.249,0.249,0,0,1-.25-0.25v-4.66c-0.113.01-.25,0.02-0.413,0.02A0.249,0.249,0,0,1,840.091,1514.67Zm5.065,2.36a1.112,1.112,0,0,1-1.056-.76,1.943,1.943,0,0,1-.06-0.5v-1.07a1.123,1.123,0,0,1,.345-0.96,0.992,0.992,0,0,1,.756-0.32,1.033,1.033,0,0,1,.861.4,1.259,1.259,0,0,1,.254.67v4.27a1.043,1.043,0,0,1-.456.84,1.03,1.03,0,0,1-.636.21h-0.023a1.077,1.077,0,0,1-1.038-.75,1.09,1.09,0,0,1-.054-0.33v-0.14a0.249,0.249,0,0,1,.25-0.25h0.313a0.249,0.249,0,0,1,.25.25,0.389,0.389,0,0,0,.211.4h0.112a0.268,0.268,0,0,0,.248-0.2,0.908,0.908,0,0,0,.01-0.18v-1.58h-0.287Zm0.287-2.41c-0.027-.33-0.171-0.38-0.3-0.39a0.337,0.337,0,0,0-.251.17,0.762,0.762,0,0,0-.025.22v1.18a0.406,0.406,0,0,0,.113.34l0.181,0.07h0.287v-1.59Zm-4.708,15.62h5.034v2h-5.034v-2Zm4.023,14.39a0.255,0.255,0,0,1,.25.25v0.33a0.247,0.247,0,0,1-.25.24h-1.676a0.247,0.247,0,0,1-.25-0.24v-5.89a0.249,0.249,0,0,1,.25-0.25h1.676a0.249,0.249,0,0,1,.25.25v0.32a0.249,0.249,0,0,1-.25.25h-1.112v1.96h0.413a0.255,0.255,0,0,1,.25.25v0.32a0.249,0.249,0,0,1-.25.25h-0.413v1.96h1.112ZM800.093,1514v-0.32a0.249,0.249,0,0,1,.25-0.25h1.716a0.249,0.249,0,0,1,.25.25V1514a0.255,0.255,0,0,1-.25.25H801.61v5.31a0.249,0.249,0,0,1-.25.25h-0.318a0.249,0.249,0,0,1-.25-0.25v-5.31h-0.449A0.255,0.255,0,0,1,800.093,1514Zm6.158,5.75a1.441,1.441,0,0,1-.382.06h-0.838a0.249,0.249,0,0,1-.25-0.25v-5.88a0.249,0.249,0,0,1,.25-0.25h0.691a1.178,1.178,0,0,1,.92.31,1.024,1.024,0,0,1,.35.81v4.16A1.083,1.083,0,0,1,806.251,1519.75Zm-0.08-5.25a0.271,0.271,0,0,0-.19-0.24,0.839,0.839,0,0,0-.152-0.01H805.6v4.74h0.322a0.265,0.265,0,0,0,.241-0.19l0.006-.06v-4.24Zm4.359-58.2h5.035v2H810.53v-2Zm0.885,89.15h-0.858l-0.177-.07-0.073-.17,0-5.9a0.255,0.255,0,0,1,.25-0.25h0.687a1.174,1.174,0,0,1,.884.28,1.029,1.029,0,0,1,.387.83v1.42a1.02,1.02,0,0,1-.211.69l0.085,0.15a1.166,1.166,0,0,1,.126.51v1.43a1.081,1.081,0,0,1-.605.97A1.116,1.116,0,0,1,811.415,1545.45Zm-0.286-.82h0.322a0.273,0.273,0,0,0,.255-0.21l0-.11v-1.32a0.293,0.293,0,0,0-.222-0.31,0.767,0.767,0,0,0-.211-0.02h-0.147v1.97Zm0.58-4.42a0.3,0.3,0,0,0-.239-0.32l-0.121-.01h-0.22v1.97h0.258a0.284,0.284,0,0,0,.314-0.23l0.01-.12Zm-1.179-9.97h5.035v2H810.53v-2ZM820.6,1456.3h5.035v2H820.6v-2Zm10.4,89.15h-1.676a0.247,0.247,0,0,1-.25-0.24v-5.89a0.249,0.249,0,0,1,.25-0.25H831a0.249,0.249,0,0,1,.25.25v0.32a0.249,0.249,0,0,1-.25.25h-1.112v1.96H830.3a0.255,0.255,0,0,1,.25.25v0.32a0.249,0.249,0,0,1-.25.25h-0.413v1.96H831a0.255,0.255,0,0,1,.25.25v0.33A0.247,0.247,0,0,1,831,1545.45Zm-0.333-15.21H835.7v2h-5.034v-2Zm0-73.94H835.7v2h-5.034v-2Zm6.241,14.82h1.56a0.5,0.5,0,0,1,.5.56l-3.633,29.27a0.5,0.5,0,0,1-.5.44h-1.481a0.5,0.5,0,0,1-.5-0.44l-3.614-29.25a0.5,0.5,0,0,1,.5-0.56h1.579a0.5,0.5,0,0,1,.5.44l2.29,18.44,2.307-18.46A0.5,0.5,0,0,1,836.908,1471.12Zm-2.574,74.33h-0.315a0.249,0.249,0,0,1-.25-0.25v-5.89a0.256,0.256,0,0,1,.25-0.25H834.7a1.186,1.186,0,0,1,.928.31,1.21,1.21,0,0,1,.269.36,1.336,1.336,0,0,1,.082.39v1.5a1.079,1.079,0,0,1-.356.77,3.073,3.073,0,0,1-.254.19l0.619,2.47,0.039,0.14a0.248,0.248,0,0,1-.25.24h-0.119l-0.128.05-0.079.01-0.121-.03-0.122-.16-0.627-2.49v2.39A0.249,0.249,0,0,1,834.334,1545.45Zm0.508-3.58a0.3,0.3,0,0,0,.32-0.24l0.006-1.45a0.278,0.278,0,0,0-.238-0.29l-0.115-.01h-0.231v1.99h0.258Zm-15.959-20.81-4.74,1.64a1.83,1.83,0,0,1-.648.09,1.774,1.774,0,0,1-1.712-1.78v-8.53a1.769,1.769,0,0,1,.586-1.32l0.032-.03a1.913,1.913,0,0,1,.391-0.25l0.224-.09a1.436,1.436,0,0,1,.291-0.07,1.727,1.727,0,0,1,.836.08l4.74,1.63a2.469,2.469,0,0,1,1.513,1.48,2.663,2.663,0,0,1,1.155-.76,2.7,2.7,0,0,1,.858-0.14h2.063a2.692,2.692,0,0,1,2.111,1.01,2.493,2.493,0,0,1,1.559-1.59l4.74-1.63a1.779,1.779,0,0,1,2.36,1.68v8.53a1.789,1.789,0,0,1-2.36,1.69l-4.74-1.64a2.471,2.471,0,0,1-1.559-1.59,2.7,2.7,0,0,1-2.111,1.02h-2.063a2.636,2.636,0,0,1-1.121-.25,2.322,2.322,0,0,1-.481-0.28,2.62,2.62,0,0,1-.411-0.37A2.453,2.453,0,0,1,818.883,1521.06Zm-5.844-3.13a0.433,0.433,0,0,0,.866,0v-0.83a0.433,0.433,0,1,0-.866,0v0.83Zm2.533-5.32-1.18-.4a1.016,1.016,0,0,0-1.353.96v2.47a0.433,0.433,0,0,0,.866,0v-2.47l0.065-.12,0.14-.02,1.18,0.4a0.428,0.428,0,0,0,.55-0.27A0.436,0.436,0,0,0,815.572,1512.61Zm11.052,5.88,0.056,0.01a0.212,0.212,0,0,0,.209-0.16l0.04-.15a5.6,5.6,0,0,0-.042-3.04,0.218,0.218,0,0,0-.269-0.15,0.223,0.223,0,0,0-.146.27,5.189,5.189,0,0,1,.039,2.81l-0.041.15A0.214,0.214,0,0,0,826.624,1518.49Zm-6.528-.3,0.04,0.15a0.211,0.211,0,0,0,.209.16l0.056-.01a0.213,0.213,0,0,0,.153-0.26l-0.04-.15a5.18,5.18,0,0,1,.039-2.81,0.223,0.223,0,0,0-.147-0.27,0.217,0.217,0,0,0-.269.15A5.6,5.6,0,0,0,820.1,1518.19Zm0.5,12.05h5.035v2H820.6v-2Zm5.992,12.7v1.43a1.078,1.078,0,0,1-.6.97,1.12,1.12,0,0,1-.5.11h-0.858l-0.177-.07-0.073-.17,0-5.9a0.256,0.256,0,0,1,.25-0.25h0.687a1.174,1.174,0,0,1,.884.28,1.029,1.029,0,0,1,.387.83v1.42a1.02,1.02,0,0,1-.21.69l0.085,0.15A1.178,1.178,0,0,1,826.59,1542.94Zm-1.39,1.69h0.322a0.275,0.275,0,0,0,.256-0.21l0-.11v-1.32a0.293,0.293,0,0,0-.222-0.31,0.776,0.776,0,0,0-.211-0.02H825.2v1.97Zm0.581-4.42a0.3,0.3,0,0,0-.239-0.32l-0.121-.01H825.2v1.97h0.259a0.282,0.282,0,0,0,.313-0.23l0.011-.13Zm-5.526,5.24H819.94a0.249,0.249,0,0,1-.249-0.25v-5.89a0.255,0.255,0,0,1,.249-0.25h0.684a1.186,1.186,0,0,1,.928.31,1.21,1.21,0,0,1,.269.36,1.336,1.336,0,0,1,.082.39v1.5a1.079,1.079,0,0,1-.356.77,3.073,3.073,0,0,1-.254.19l0.619,2.47,0.038,0.14a0.247,0.247,0,0,1-.249.24h-0.119l-0.128.05-0.079.01-0.121-.03-0.122-.16-0.627-2.49v2.39A0.249,0.249,0,0,1,820.255,1545.45Zm0.508-3.58a0.3,0.3,0,0,0,.32-0.24l0.006-1.45a0.278,0.278,0,0,0-.238-0.29l-0.115-.01h-0.231v1.99h0.258Zm-5.2,3.58h-0.314a0.246,0.246,0,0,1-.25-0.24v-5.04a1.092,1.092,0,0,1,.718-1.04,1.21,1.21,0,0,1,.346-0.07h0.1a1.044,1.044,0,0,1,.762.36,1.124,1.124,0,0,1,.3.83v4.96a0.247,0.247,0,0,1-.25.24h-0.321a0.246,0.246,0,0,1-.25-0.24v-2.53h-0.589v2.53A0.246,0.246,0,0,1,815.567,1545.45Zm0.838-3.58v-1.7a0.273,0.273,0,0,0-.232-0.28,0.279,0.279,0,0,0-.345.2h0a1.19,1.19,0,0,0-.013.2v1.58h0.589Zm-8.412-40.48h-1.56a0.5,0.5,0,0,1-.5-0.5v-25.05a4.728,4.728,0,0,1,3.135-4.48,5.438,5.438,0,0,1,1.413-.26h0.474a4.531,4.531,0,0,1,3.258,1.53,4.971,4.971,0,0,1,1.289,3.63v24.63a0.5,0.5,0,0,1-.5.5h-1.6a0.5,0.5,0,0,1-.5-0.5v-13.3h-4.411v13.3A0.5,0.5,0,0,1,807.993,1501.39Zm4.91-16.36v-9.19a2.1,2.1,0,0,0-1.644-2.09,1.949,1.949,0,0,0-.581-0.09,2.213,2.213,0,0,0-2.057,1.47,4.44,4.44,0,0,0-.129,1.3v8.6H812.9Zm-12.441,45.21H805.5v2h-5.034v-2Zm2.05,15.21h-0.318a0.247,0.247,0,0,1-.25-0.24v-5.32H801.5a0.249,0.249,0,0,1-.25-0.25v-0.32a0.249,0.249,0,0,1,.25-0.25h1.716a0.248,0.248,0,0,1,.249.25v0.32a0.248,0.248,0,0,1-.249.25h-0.45v5.32A0.246,0.246,0,0,1,802.512,1545.45Zm-12.118-89.15h5.034v2h-5.034v-2Zm2.241,62.69a0.249,0.249,0,0,1,.25.25v0.32a0.249,0.249,0,0,1-.25.25h-1.676a0.249,0.249,0,0,1-.25-0.25v-5.88a0.249,0.249,0,0,1,.25-0.25h1.676a0.249,0.249,0,0,1,.25.25V1514a0.255,0.255,0,0,1-.25.25h-1.112v1.96h0.413a0.249,0.249,0,0,1,.25.25v0.32a0.255,0.255,0,0,1-.25.25h-0.413v1.96h1.112Zm2.852,0.12a1.008,1.008,0,0,1-.075-0.38v-0.14a0.249,0.249,0,0,1,.25-0.25h0.314a0.249,0.249,0,0,1,.25.25v0.13a0.29,0.29,0,0,0,.213.27H796.5a0.279,0.279,0,0,0,.3-0.21l0-.11v-1.27a0.277,0.277,0,0,0-.171-0.33c-0.187-.03-0.338-0.06-0.411-0.08a1.3,1.3,0,0,1-.559-0.35,1.338,1.338,0,0,1-.257-0.84v-1.1a1.117,1.117,0,0,1,.325-0.93,0.983,0.983,0,0,1,.763-0.34,1.079,1.079,0,0,1,1.04.68,1,1,0,0,1,.083.42v0.13a0.255,0.255,0,0,1-.25.25h-0.314a0.254,0.254,0,0,1-.249-0.25v-0.13a0.273,0.273,0,0,0-.2-0.27l-0.089-.02a0.287,0.287,0,0,0-.257.17l-0.029.15v1.36l0.085,0.21a0.726,0.726,0,0,0,.391.13,1.156,1.156,0,0,1,.684.37,1.2,1.2,0,0,1,.23.69v1.4a1.068,1.068,0,0,1-.605.97,1.126,1.126,0,0,1-.5.12A1.077,1.077,0,0,1,795.487,1519.11Zm2.3,23.6c-0.187-.02-0.339-0.06-0.411-0.07a1.123,1.123,0,0,1-.817-1.2v-1.09a1.143,1.143,0,0,1,.325-0.94,0.985,0.985,0,0,1,.763-0.34,1.075,1.075,0,0,1,1.04.69,0.921,0.921,0,0,1,.084.41v0.13a0.249,0.249,0,0,1-.25.25h-0.314a0.249,0.249,0,0,1-.25-0.25v-0.13a0.288,0.288,0,0,0-.2-0.27l-0.088-.01a0.275,0.275,0,0,0-.258.16l-0.028.15v1.36l0.084,0.21a0.726,0.726,0,0,0,.391.13,1.169,1.169,0,0,1,.684.38,1.146,1.146,0,0,1,.231.68v1.41a1.08,1.08,0,0,1-.606.97,1.109,1.109,0,0,1-.5.11,1.078,1.078,0,0,1-1.026-.7,1,1,0,0,1-.074-0.37v-0.15a0.249,0.249,0,0,1,.25-0.25h0.314a0.249,0.249,0,0,1,.25.25v0.13a0.274,0.274,0,0,0,.212.27h0.062a0.279,0.279,0,0,0,.3-0.21l0-.11v-1.27A0.286,0.286,0,0,0,797.785,1542.71Zm-7.391-12.47h5.034v2h-5.034v-2Zm3.393,14.39a0.255,0.255,0,0,1,.25.25v0.33a0.247,0.247,0,0,1-.25.24h-1.676a0.247,0.247,0,0,1-.25-0.24v-5.89a0.249,0.249,0,0,1,.25-0.25h1.676a0.249,0.249,0,0,1,.25.25v0.32a0.249,0.249,0,0,1-.25.25h-1.112v1.96h0.413a0.255,0.255,0,0,1,.25.25v0.32a0.249,0.249,0,0,1-.25.25h-0.413v1.96h1.112Zm-4.41-1.69v1.43a1.079,1.079,0,0,1-.6.97,1.116,1.116,0,0,1-.5.11h-0.858l-0.176-.07-0.074-.17,0-5.9a0.255,0.255,0,0,1,.25-0.25h0.687a1.174,1.174,0,0,1,.884.28,1.029,1.029,0,0,1,.387.83v1.42a1.02,1.02,0,0,1-.211.69l0.086,0.15A1.178,1.178,0,0,1,789.377,1542.94Zm-1.39,1.69h0.322a0.273,0.273,0,0,0,.255-0.21l0-.11v-1.32a0.293,0.293,0,0,0-.222-0.31,0.767,0.767,0,0,0-.211-0.02h-0.147v1.97Zm0.58-4.42a0.3,0.3,0,0,0-.238-0.32l-0.122-.01h-0.22v1.97h0.258a0.284,0.284,0,0,0,.314-0.23l0.01-.12Zm-3.208-7.97h-2.5v-2h2.5v2Zm4.257-60.64a0.5,0.5,0,0,1,.5-0.5h1.6a0.5,0.5,0,0,1,.5.5v29.29a0.5,0.5,0,0,1-.5.5h-1.6a0.5,0.5,0,0,1-.5-0.5v-13.32h-4.411v13.32a0.5,0.5,0,0,1-.5.5h-1.6a0.5,0.5,0,0,1-.5-0.5V1471.6a0.5,0.5,0,0,1,.5-0.5h1.6a0.5,0.5,0,0,1,.5.5v13.37h4.411V1471.6Zm-4.257-13.3h-2.5v-2h2.5v2Zm-20.441,29.5c-1.029-.17-1.748-0.31-2.11-0.4a5.8,5.8,0,0,1-2.451-1.59,5.859,5.859,0,0,1-1.058-3.63v-5.45c0-2.02.437-3.35,1.335-4.06a4.216,4.216,0,0,1,3.331-1.53h0.217a4.554,4.554,0,0,1,4.283,2.97,4.028,4.028,0,0,1,.344,1.75v0.63a0.5,0.5,0,0,1-.5.5h-1.56a0.5,0.5,0,0,1-.5-0.5v-0.63a2.17,2.17,0,0,0-1.418-2.02,2.687,2.687,0,0,0-.767-0.14,2.178,2.178,0,0,0-1.908,1.17,2.281,2.281,0,0,0-.258,1.13v6.77a2.234,2.234,0,0,0,.606,1.54,4.26,4.26,0,0,0,2.423.88,4.4,4.4,0,0,1,3.882,4.53v7a4.578,4.578,0,0,1-2.625,4.17,4.826,4.826,0,0,1-2.12.5,4.65,4.65,0,0,1-4.424-3.08,4.168,4.168,0,0,1-.3-1.55v-0.73a0.5,0.5,0,0,1,.5-0.5H761.4a0.5,0.5,0,0,1,.5.5v0.65a2.126,2.126,0,0,0,1.5,2.03,1.726,1.726,0,0,0,.605.08h0.237a2.113,2.113,0,0,0,1.917-1.47,4.384,4.384,0,0,0,.09-0.87v-6.32C766.249,1488.48,765.489,1488.01,764.918,1487.8Zm80.851-31.5v2h-3.45l3.882,6.72-2.6,1.5-20.394-35.31-20.394,35.31-2.6-1.5,3.881-6.72h-3.638v-2h4.793l17.955-31.08,17.955,31.08h4.6Zm39.832,44.49a0.5,0.5,0,0,1-.5.5h-0.669l-0.752.25-0.158.02-0.241-.06a0.487,0.487,0,0,1-.245-0.31l-3.418-13.6h-1.165v13.26a0.5,0.5,0,0,1-.5.5h-1.56a0.5,0.5,0,0,1-.5-0.5V1471.6a0.5,0.5,0,0,1,.5-0.5h3.4c2.027,0,3.365.43,4.088,1.33a4.705,4.705,0,0,1,1.2,1.59,5.489,5.489,0,0,1,.329,1.61v7.46a4.637,4.637,0,0,1-1.549,3.27,6.636,6.636,0,0,1-1.6,1.07l3.282,13.11A0.5,0.5,0,0,1,885.6,1500.79Zm-2.828-17.43a1.472,1.472,0,0,0,.071-0.55v-6.91a2.112,2.112,0,0,0-1.623-2.13l-0.8-.08-1.963.01v11.33h2.028A2.2,2.2,0,0,0,882.773,1483.36Zm-104.318,25.33-24.516,42.45H892.481l-24.516-42.45,2.6-1.5,27.114,46.94H748.744l27.114-46.94Zm-21.507,49.12,1.732,1c-0.476.83-.95,1.65-1.423,2.48q20.789,0,41.58-.06c20.37-.04,41.437-0.09,62.151-0.04q14.086,0.03,28.17.09-0.422-.735-0.845-1.47l-0.48-.83,1.732-1,0.481,0.83c0.462,0.81.923,1.61,1.383,2.42,0.1,0.16.2,0.35,0.322,0.56h0l0.853,1.51-1.727-.01q-14.946-.075-29.894-0.1c-20.711-.05-41.775-0.01-62.144.04q-21.653.045-43.306,0.06h-1.72l0.851-1.5Q755.8,1559.81,756.948,1557.81Z" transform="translate(-748.75 -1425.22)"/>
</svg>

