<svg xmlns="http://www.w3.org/2000/svg" width="182.344" height="108.684" viewBox="0 0 182.344 108.684">
  <defs>
    <style>
      .cls-1 {
        fill: #fff;
        fill-rule: evenodd;
      }
    </style>
  </defs>
  <path id="P22.svg" class="cls-1" d="M913.373,1052.19L823.3,1101.61l-90.071-49.42,8.1-4.45-9.2-4.81L823.3,992.909l91.166,50.021-9.2,4.81Zm-175.987,0,85.916,47.14,85.916-47.14L823.3,1005.05Zm170.736-9.32L823.3,996.328,738.48,1042.87l6.007,3.14,78.815-43.24,79.05,43.37-0.105-.2Zm-82.685,16.72,1.977,4.41H826.33l-0.355-.8H823.9l-0.36.8h-1.079l1.977-4.41h1Zm0.132,2.67-0.629-1.44-0.63,1.44h1.259Zm-6.158-10.33-2.895-3.32H814.84v3.35h-2.093v-10.24h2.488c0.795,0.01,1.592.01,2.387,0.01a3.437,3.437,0,0,1,3.713,3.43,3.067,3.067,0,0,1-2.45,3.21l2.952,3.33v0.26h-2.4Zm-0.168-6.73a1.484,1.484,0,0,0-1.621-1.51H814.84v3.01h2.782A1.464,1.464,0,0,0,819.243,1045.2Zm0.038-11.23h-1.753v-4.4h1.753a2.1,2.1,0,0,1,2.2,2.16,2.293,2.293,0,0,1-.607,1.64A2.2,2.2,0,0,1,819.281,1033.97Zm0-3.45h-0.766v2.49h0.766a1.181,1.181,0,0,0,.886-0.33,1.3,1.3,0,0,0,.33-0.95A1.146,1.146,0,0,0,819.281,1030.52Zm-5.424,3.45h-0.993v-3.48H811.53v-0.92h3.662v0.92h-1.335v3.48ZM814,1060.18l0.073,0.07-0.672.65-0.069-.07a1.426,1.426,0,0,0-1.917,0,1.38,1.38,0,0,0-.377.99,1.252,1.252,0,0,0,1.348,1.33,1.467,1.467,0,0,0,.987-0.4l0.071-.07,0.682,0.69-0.071.07a2.308,2.308,0,0,1-1.669.65,2.165,2.165,0,0,1-2.33-2.27,2.356,2.356,0,0,1,.652-1.67,2.3,2.3,0,0,1,1.678-.64A2.256,2.256,0,0,1,814,1060.18Zm-6.534-28.98c0.927,0.12,1.784.37,1.784,1.44,0,0.89-.716,1.44-1.867,1.44a1.842,1.842,0,0,1-1.926-1.09l-0.034-.09,0.839-.43,0.041,0.1a1.1,1.1,0,0,0,1.092.6c0.2,0,.867-0.04.867-0.53,0-.18-0.092-0.43-0.884-0.52-0.862-.1-1.742-0.34-1.742-1.37a1.511,1.511,0,0,1,1.728-1.33,1.78,1.78,0,0,1,1.743.89l0.043,0.09-0.8.42-0.049-.09a1.121,1.121,0,0,0-.912-0.42c-0.476,0-.771.18-0.771,0.46C806.62,1031.01,806.858,1031.13,807.469,1031.2Zm-7.775-1.63h3.349v0.97h-2.361v0.76h2.277v0.94h-2.277v0.75h2.361v0.98h-3.349v-4.4Zm2.836,12.16,0.027,0.06,4.565,10.17h-2.284l-0.846-1.89h-5.118l-0.861,1.89h-2.269l0.063-.14,4.529-10.09h2.194Zm0.614,6.38-1.711-3.92-1.711,3.92h3.422Zm-13.281-16.93h5.1v1h-5.1v-1Zm-0.637,15.48a2.614,2.614,0,0,1,1.453,2.25c0,2-1.334,3.05-3.857,3.05h-4.861v-10.23h4.861c2.26,0,3.556,1.1,3.556,3.01A2.106,2.106,0,0,1,789.226,1046.66Zm-2.4-3.01h-2.8v2.11h2.8c0.966,0,1.477-.34,1.477-0.98A1.26,1.26,0,0,0,786.822,1043.65Zm0,3.97h-2.8V1050h2.8c0.3,0,1.778-.05,1.778-1.1C788.6,1048.06,787.567,1047.62,786.822,1047.62Zm-23.906,1.02a1.925,1.925,0,1,1,1.924-1.92A1.923,1.923,0,0,1,762.916,1048.64ZM799.222,1064v-4.4h1.065l1.265,1.74,1.265-1.74h1.059v4.4h-0.994v-2.85l-1.22,1.63h-0.257l-1.189-1.63V1064h-0.994Zm8.305-4.41V1064h-0.988v-4.41h0.988Zm12.769,0.01v4.4H819.31v-1.7h-1.868v1.7h-0.993v-4.4h0.993v1.77h1.868v-1.77H820.3Zm76.169-10.38a1.5,1.5,0,1,1,1.447,2.62l-73.887,40.65a1.542,1.542,0,0,1-1.446,0l-72.923-40.12a1.5,1.5,0,1,1,1.445-2.62l72.2,39.71Zm-11.705-.58a1.925,1.925,0,1,1,1.924-1.92A1.923,1.923,0,0,1,884.76,1048.64Zm-21.873,3.29-2.9-3.32h-1.675v3.35h-2.092v-10.24h2.488c0.8,0.01,1.59.01,2.386,0.01a3.438,3.438,0,0,1,3.714,3.43,3.067,3.067,0,0,1-2.451,3.21l2.952,3.33v0.26h-2.4Zm-0.168-6.73a1.485,1.485,0,0,0-1.622-1.51h-2.782v3.01H861.1A1.465,1.465,0,0,0,862.719,1045.2Zm-10.9-14.02h5.1v1h-5.1v-1ZM844.373,1064v-4.4H847.6v0.96h-2.23v0.95h2.11v0.93h-2.11V1064h-0.992Zm-2.159-22.27h7.713v2.04h-5.635v2.1h5.434v1.97h-5.434v2.06h5.635v2.06h-7.713v-10.23Zm3.043-7.76h-1.135l0.071-.14,1.647-3.3h-1.988v-0.96h3.278l0.056,0.54-0.013.02Zm-5.651.07c-0.894,0-1.848-.35-1.848-1.34v-0.1h0.993v0.1a0.956,0.956,0,0,0,1.7-.15v-0.36a1.517,1.517,0,0,1-.874.29,1.585,1.585,0,0,1-1.836-1.5,1.888,1.888,0,0,1,3.7.02v1.56A1.623,1.623,0,0,1,839.606,1034.04Zm-0.024-3.64a0.634,0.634,0,1,0-.006,1.19,1.051,1.051,0,0,0,.73-0.24,0.493,0.493,0,0,0,.144-0.36A0.737,0.737,0,0,0,839.582,1030.4Zm-1,33.6h-3.157v-4.41h0.992v3.47h2.165V1064Zm-5.681-.99V1064h-3.349v-4.41H832.9v0.97H830.54v0.77h2.278v0.94H830.54v0.74H832.9Zm3.187-14.1c0,2-1.333,3.05-3.856,3.05h-4.859v-10.23h4.859c2.26,0,3.556,1.1,3.556,3.01a2.1,2.1,0,0,1-1.152,1.92A2.61,2.61,0,0,1,836.089,1048.91Zm-3.856-5.26h-2.8v2.11h2.8c0.967,0,1.478-.34,1.478-0.98A1.262,1.262,0,0,0,832.233,1043.65Zm0,3.97h-2.8V1050h2.8c0.3,0,1.779-.05,1.779-1.1C834.012,1048.06,832.979,1047.62,832.233,1047.62Zm1.205-13.58c-0.893,0-1.848-.35-1.848-1.34v-0.1h0.993v0.1a0.956,0.956,0,0,0,1.7-.15v-0.36a1.516,1.516,0,0,1-.873.29,1.585,1.585,0,0,1-1.837-1.5,1.888,1.888,0,0,1,3.7.02v1.56A1.623,1.623,0,0,1,833.438,1034.04Zm-0.024-3.64a0.634,0.634,0,1,0,0,1.19,1.048,1.048,0,0,0,.729-0.24,0.493,0.493,0,0,0,.144-0.36A0.737,0.737,0,0,0,833.414,1030.4ZM827,1033.1h0.631v-2.61h-0.655v-0.92h1.641v3.53H829.2v0.87H827v-0.87Z" transform="translate(-732.125 -992.906)"/>
</svg>

