<svg xmlns="http://www.w3.org/2000/svg" width="144.68" height="148.25" viewBox="0 0 144.68 148.25">
  <defs>
    <style>
      .cls-1 {
        fill: #fff;
        fill-rule: evenodd;
      }
    </style>
  </defs>
  <path id="P27.svg" class="cls-1" d="M1077.88,1199.87l57.43,33.14a1.584,1.584,0,1,1-1.59,2.74l-57.42-33.14a3.985,3.985,0,0,0-3.98,0l-56.63,32.68v15.03a1.585,1.585,0,0,1-3.17,0v-15.94a1.571,1.571,0,0,1,.79-1.37l57.43-33.14A7.142,7.142,0,0,1,1077.88,1199.87Zm-75.34,78.49a0.658,0.658,0,0,1-.66-0.68v-17.72a0.66,0.66,0,0,1,.66-0.69h7.51a5.463,5.463,0,0,1,5.45,5.45,5.488,5.488,0,0,0,0,8.2,5.461,5.461,0,0,1-5.45,5.44h-7.51Zm7.51-16.37h-5.45v5.48h5.45A2.74,2.74,0,0,0,1010.05,1261.99Zm2.73,10.93a2.74,2.74,0,0,0-2.73-2.73h-5.45v5.45h5.45A2.738,2.738,0,0,0,1012.78,1272.92Zm7.52,5.44h-1.38a0.658,0.658,0,0,1-.66-0.68v-12.96a5.463,5.463,0,0,1,5.45-5.45h2.72a5.471,5.471,0,0,1,5.46,5.45v12.96a0.671,0.671,0,0,1-.69.68h-1.35a0.665,0.665,0,0,1-.69-0.68v-7.49h-8.18v7.49A0.681,0.681,0,0,1,1020.3,1278.36Zm8.86-10.89v-2.75a2.74,2.74,0,0,0-2.73-2.73h-2.72a2.74,2.74,0,0,0-2.73,2.73v2.75h8.18Zm87.28,26.06a0.738,0.738,0,0,1-.74.74h-6.27a0.74,0.74,0,0,1,0-1.48h6.27A0.738,0.738,0,0,1,1116.44,1293.53Zm-4.88-51.41h2.08a1.72,1.72,0,0,1,1.72,1.72,1.741,1.741,0,0,1-1.47,1.71l1.35,1.33a0.4,0.4,0,0,1,0,.56l-0.27.27a0.442,0.442,0,0,1-.28.12,0.4,0.4,0,0,1-.28-0.12l-2.07-2.06v1.77a0.4,0.4,0,0,1-.4.4h-0.38a0.387,0.387,0,0,1-.39-0.4v-4.9A0.393,0.393,0,0,1,1111.56,1242.12Zm0.78,2.27h1.3a0.546,0.546,0,0,0,.54-0.55,0.538,0.538,0,0,0-.54-0.54h-1.3v1.09Zm-10.16,46.12a0.389,0.389,0,0,1,.4.4v1.01a0.4,0.4,0,0,1-.12.29l-1.39,1.41v2.19a0.4,0.4,0,0,1-.4.4h-0.37a0.4,0.4,0,0,1-.41-0.4v-2.52a0.342,0.342,0,0,1,.12-0.27l1.33-1.33h-2.56a0.393,0.393,0,0,1-.39-0.4v-0.38a0.393,0.393,0,0,1,.39-0.4h3.4Zm-8.98,3.44a1.72,1.72,0,0,1,0-3.44h0.75a1.72,1.72,0,0,1,1.72,1.72v2.27a1.718,1.718,0,0,1-1.72,1.71h-0.75a1.718,1.718,0,0,1-1.72-1.71,0.4,0.4,0,0,1,.39-0.41h0.38a0.4,0.4,0,0,1,.4.41,0.553,0.553,0,0,0,.55.54h0.75a0.544,0.544,0,0,0,.54-0.54v-0.55h-1.29Zm1.29-1.72a0.538,0.538,0,0,0-.54-0.54h-0.75a0.546,0.546,0,0,0-.55.54,0.555,0.555,0,0,0,.55.55h1.29v-0.55Zm-8.2,1.72a1.72,1.72,0,0,1,0-3.44h0.75a1.72,1.72,0,0,1,1.72,1.72v2.27a1.718,1.718,0,0,1-1.72,1.71h-0.75a1.718,1.718,0,0,1-1.72-1.71,0.4,0.4,0,0,1,.39-0.41h0.38a0.4,0.4,0,0,1,.4.41,0.553,0.553,0,0,0,.55.54h0.75a0.544,0.544,0,0,0,.54-0.54v-0.55h-1.29Zm1.29-1.72a0.538,0.538,0,0,0-.54-0.54h-0.75a0.546,0.546,0,0,0-.55.54,0.555,0.555,0,0,0,.55.55h1.29v-0.55Zm9.84-27.51a5.476,5.476,0,0,1-5.46,5.47h-0.85l6.09,6.06a0.688,0.688,0,0,1,0,.96l-0.96.96a0.67,0.67,0,0,1-.96,0l-7.98-7.98h-0.79v7.49a0.681,0.681,0,0,1-.68.68h-1.38a0.658,0.658,0,0,1-.66-0.68v-17.72a0.66,0.66,0,0,1,.66-0.69h7.51A5.471,5.471,0,0,1,1097.42,1264.72Zm-10.91,2.75h5.45a2.74,2.74,0,0,0,0-5.48h-5.45v5.48Zm-20.33-51.53,1.39-.74,5.75-3.32,0.22-.12,0.19-.07,0.04-.01a1.807,1.807,0,0,1,.51-0.08h0.04a2.008,2.008,0,0,1,.99.28l5.66,3.28,1.57,0.83a4.216,4.216,0,0,1,2.18,3.69v8.84a0.575,0.575,0,0,1-.19.43,0.632,0.632,0,0,1-.39.15,0.579,0.579,0,0,1-.56-0.43l-1.33-6.42-0.08-.26a3.291,3.291,0,0,0-3.14-2.14,3.458,3.458,0,0,0-1.06.17l-3.08.99a2.72,2.72,0,0,1-.43.09h-0.04l-0.11.01h-0.09l-0.02-.01h-0.04a1.93,1.93,0,0,1-.43-0.1l-3.07-.98a3.571,3.571,0,0,0-1.07-.17,3.269,3.269,0,0,0-3.13,2.14l-0.09.28-1.33,6.38a0.575,0.575,0,0,1-.56.45,0.566,0.566,0,0,1-.57-0.58v-8.84A4.2,4.2,0,0,1,1066.18,1215.94Zm3.67,2.05a0.386,0.386,0,0,0,.33.19l0.19-.05,1.5-.88a0.389,0.389,0,0,0,.14-0.52,0.383,0.383,0,0,0-.53-0.14l-1.5.87A0.389,0.389,0,0,0,1069.85,1217.99Zm-2.06-.82a0.386,0.386,0,0,0,.33.19l0.2-.05,3.57-2.1a0.381,0.381,0,0,0,.14-0.53,0.386,0.386,0,0,0-.53-0.13l-3.57,2.09A0.381,0.381,0,0,0,1067.79,1217.17Zm-4.11,28.39h-0.75a1.72,1.72,0,0,1,0-3.44h0.75a1.72,1.72,0,0,1,1.72,1.72,0.4,0.4,0,0,1-.4.4h-0.38a0.4,0.4,0,0,1-.4-0.4,0.538,0.538,0,0,0-.54-0.54h-0.75a0.546,0.546,0,0,0-.55.54,0.555,0.555,0,0,0,.55.55h0.75a1.715,1.715,0,1,1,0,3.43h-0.75a1.718,1.718,0,0,1-1.72-1.71,0.387,0.387,0,0,1,.39-0.4h0.38a0.4,0.4,0,0,1,.4.4,0.546,0.546,0,0,0,.55.54h0.75a0.538,0.538,0,0,0,.54-0.54A0.546,0.546,0,0,0,1063.68,1245.56Zm19.21,65.18a1.24,1.24,0,0,1,1.24,1.24v6.17a4.333,4.333,0,0,1-3.27,4.21l-5.66,1.44a3.8,3.8,0,0,1-.89.11l-0.06-.01a2.966,2.966,0,0,1-.42-0.03,2.929,2.929,0,0,1-.41-0.07l-5.66-1.44a4.33,4.33,0,0,1-3.27-4.21v-6.17a1.243,1.243,0,0,1,.54-1.03,1.282,1.282,0,0,1,.7-0.21,1.247,1.247,0,0,1,1.03.56,1.3,1.3,0,0,1,.17.38l0.04,0.16c0,0.12,0,.25.01,0.37a3.607,3.607,0,0,0,1.06,2.19,3.66,3.66,0,0,0,1.82.96,3.822,3.822,0,0,0,.68.06h0c0.11,0,.22,0,0.33-0.01a3.35,3.35,0,0,0,.98-0.24c0.19-.07.39-0.14,0.58-0.19l0.07-.02a4.537,4.537,0,0,1,.53-0.12h0.01a6.13,6.13,0,0,1,1.21-.12h0a6.531,6.531,0,0,1,2.35.44l0.2,0.07a3.5,3.5,0,0,0,1.28.24,3.589,3.589,0,0,0,3.58-3.58l0.01-.11A1.245,1.245,0,0,1,1082.89,1310.74Zm-11.73,8.2-1.62-.43a0.378,0.378,0,0,0-.46.28,0.365,0.365,0,0,0,.27.46l1.62,0.43,0.1,0.01a0.393,0.393,0,0,0,.37-0.29A0.378,0.378,0,0,0,1071.16,1318.94Zm0.69,1.92-3.88-1.01a0.386,0.386,0,0,0-.47.27,0.378,0.378,0,0,0,.27.47l3.88,1.01,0.1,0.01A0.381,0.381,0,0,0,1071.85,1320.86Zm10.2-75.07a0.4,0.4,0,0,1-.13.3l-1.69,1.69a0.333,0.333,0,0,1-.28.11,0.393,0.393,0,0,1-.28-0.11l-1.69-1.7a0.385,0.385,0,0,1-.12-0.29v-3.27a0.4,0.4,0,0,1,.4-0.4h0.38a0.4,0.4,0,0,1,.4.4v2.97l0.91,0.92,0.93-.92v-2.96a0.4,0.4,0,0,1,.4-0.41h0.37a0.4,0.4,0,0,1,.4.4v3.27Zm-6.21-18.13h0.64a2.831,2.831,0,0,0,1.23-.28l1.69-.79a1.713,1.713,0,0,1,2.23.79l0.19,0.31a0.386,0.386,0,1,1-.66.4l-0.19-.32a0.972,0.972,0,0,0-1.24-.49l-1.7.8a3.62,3.62,0,0,1-1.55.35h-0.64A0.385,0.385,0,1,1,1075.84,1227.66Zm-1.06,14.46a1.72,1.72,0,0,1,1.72,1.72v3.58a0.4,0.4,0,0,1-.4.4h-0.37a0.4,0.4,0,0,1-.41-0.4v-1.86h-1.83v1.86a0.4,0.4,0,0,1-.41.4h-0.37a0.389,0.389,0,0,1-.4-0.4v-3.58a1.72,1.72,0,0,1,1.72-1.72h0.75Zm-1.29,1.72v0.55h1.83v-0.55a0.538,0.538,0,0,0-.54-0.54h-0.75A0.538,0.538,0,0,0,1073.49,1243.84Zm-6.5-16.46a1.713,1.713,0,0,1,2.23-.79l1.69,0.79a2.831,2.831,0,0,0,1.23.28h0.64a0.385,0.385,0,1,1,0,.77h-0.64a3.62,3.62,0,0,1-1.55-.35l-1.7-.8a0.972,0.972,0,0,0-1.24.49l-0.19.32a0.377,0.377,0,0,1-.52.13,0.383,0.383,0,0,1-.14-0.53Zm-0.23,15.14a0.393,0.393,0,0,1,.39-0.4h0.38a0.4,0.4,0,0,1,.41.4v1.87h1.83v-1.87a0.4,0.4,0,0,1,.4-0.4h0.38a0.4,0.4,0,0,1,.4.4v4.9a0.4,0.4,0,0,1-.4.4h-0.38a0.4,0.4,0,0,1-.4-0.4v-1.86h-1.83v1.86a0.4,0.4,0,0,1-.41.4h-0.38a0.387,0.387,0,0,1-.39-0.4v-4.9Zm0.2,53.29v-4.9a0.4,0.4,0,0,1,.4-0.4h2.07a1.72,1.72,0,0,1,1.72,1.72v2.27a1.718,1.718,0,0,1-1.72,1.71h-2.07A0.4,0.4,0,0,1,1066.96,1295.81Zm1.18-.77h1.29a0.553,0.553,0,0,0,.55-0.54v-2.27a0.546,0.546,0,0,0-.55-0.54h-1.29v3.35Zm13.71,0.4v0.37a0.4,0.4,0,0,1-.4.4h-3.4a0.387,0.387,0,0,1-.39-0.4v-0.37a0.387,0.387,0,0,1,.39-0.4h1.11v-2.52l-0.56.56a0.4,0.4,0,0,1-.57,0l-0.26-.26a0.387,0.387,0,0,1,0-.56l1.4-1.4a0.407,0.407,0,0,1,.4-0.35h0.37a0.4,0.4,0,0,1,.4.4v4.13h1.11A0.4,0.4,0,0,1,1081.85,1295.44Zm-1.5-19.8a0.665,0.665,0,0,1,.68.69v1.35a0.662,0.662,0,0,1-.68.68h-12.28a0.658,0.658,0,0,1-.66-0.68v-17.72a0.66,0.66,0,0,1,.66-0.69h12.28a0.665,0.665,0,0,1,.68.69v1.37a0.658,0.658,0,0,1-.68.66h-10.22v5.48h7.49a0.666,0.666,0,0,1,.69.66v1.37a0.691,0.691,0,0,1-.69.69h-7.49v5.45h10.22Zm-10.61,36.62a1.841,1.841,0,0,0,1.6.9h5.94a1.848,1.848,0,0,0,1.57-.85,0.393,0.393,0,0,1,.53-0.11,0.378,0.378,0,0,1,.11.53,2.639,2.639,0,0,1-2.21,1.2h-5.94a2.647,2.647,0,0,1-2.26-1.27A0.386,0.386,0,1,1,1069.74,1312.26Zm-2.4-1.52a1.186,1.186,0,0,1,.1-0.46,1.074,1.074,0,0,1,.55-0.52l4.59-1.91,0.21-.07,0.1-.02,0.12-.02,0.15-.01,0.07-.01,0.18,0.01,0.03,0.01,0.2,0.03h0.02a2.106,2.106,0,0,1,.59.27h0l0.06,0.05a1.741,1.741,0,0,1,1.73-.24l4.59,1.91a1.071,1.071,0,0,1,.65.98,1.058,1.058,0,0,1-1.06,1.06h0l-0.13-.01-4.93-.62a1.774,1.774,0,0,1-.85-0.35l-0.06.04h0l-0.18.12h-0.01l-0.18.08-0.05.02-0.15.05-0.22.04-4.93.62A1.058,1.058,0,0,1,1067.34,1310.74Zm-5-14.53h-0.38a0.4,0.4,0,0,1-.4-0.4v-4.12h-1.11a0.4,0.4,0,0,1-.4-0.4v-0.38a0.4,0.4,0,0,1,.4-0.4h3.39a0.4,0.4,0,0,1,.4.4v0.38a0.4,0.4,0,0,1-.4.4h-1.1v4.12A0.4,0.4,0,0,1,1062.34,1296.21Zm-6.73-2.26h-0.75a1.72,1.72,0,1,1,0-3.44h0.75a1.72,1.72,0,0,1,1.72,1.72,0.4,0.4,0,0,1-.4.4h-0.37a0.4,0.4,0,0,1-.4-0.4,0.546,0.546,0,0,0-.55-0.54h-0.75a0.538,0.538,0,0,0-.54.54,0.546,0.546,0,0,0,.54.55h0.75a1.715,1.715,0,1,1,0,3.43h-0.75a1.718,1.718,0,0,1-1.72-1.71,0.4,0.4,0,0,1,.4-0.41h0.38a0.4,0.4,0,0,1,.4.41,0.544,0.544,0,0,0,.54.54h0.75A0.545,0.545,0,1,0,1055.61,1293.95Zm9.04-29.23a5.488,5.488,0,0,0,0,8.2,5.467,5.467,0,0,1-5.45,5.44h-7.51a0.666,0.666,0,0,1-.67-0.68v-17.72a0.668,0.668,0,0,1,.67-0.69h7.51A5.469,5.469,0,0,1,1064.65,1264.72Zm-10.9,10.92h5.45a2.725,2.725,0,0,0,0-5.45h-5.45v5.45Zm0-8.17h5.45a2.74,2.74,0,0,0,0-5.48h-5.45v5.48Zm-3.25-25.35h3.39a0.4,0.4,0,0,1,.4.4v0.38a0.389,0.389,0,0,1-.4.4h-1.1v4.12a0.4,0.4,0,0,1-.4.4h-0.38a0.4,0.4,0,0,1-.4-0.4v-4.12h-1.11a0.4,0.4,0,0,1-.4-0.4v-0.38A0.4,0.4,0,0,1,1050.5,1242.12Zm-0.08,48.79v0.38a0.4,0.4,0,0,1-.4.4h-2.61v1.09h1.86a0.393,0.393,0,0,1,.4.39v0.38a0.4,0.4,0,0,1-.4.4h-1.86v1.09h2.61a0.389,0.389,0,0,1,.4.4v0.37a0.389,0.389,0,0,1-.4.4h-3.39a0.4,0.4,0,0,1-.4-0.4v-4.9a0.4,0.4,0,0,1,.4-0.4h3.39A0.4,0.4,0,0,1,1050.42,1290.91Zm-10.29,2.62a0.738,0.738,0,0,1-.74.74h-6.28a0.74,0.74,0,0,1,0-1.48h6.28A0.738,0.738,0,0,1,1040.13,1293.53Zm-4.21-45.71h-2.07a0.389,0.389,0,0,1-.4-0.4v-4.9a0.4,0.4,0,0,1,.4-0.4h2.07a1.72,1.72,0,0,1,1.72,1.72,1.7,1.7,0,0,1-.42,1.13A1.723,1.723,0,0,1,1035.92,1247.82Zm0-4.52h-1.29v1.09h1.29a0.555,0.555,0,0,0,.55-0.55A0.546,0.546,0,0,0,1035.92,1243.3Zm0,2.26h-1.29v1.09h1.29a0.546,0.546,0,0,0,.55-0.54A0.555,0.555,0,0,0,1035.92,1245.56Zm12.35,19.16a5.473,5.473,0,0,1-5.45,5.47h-0.86l6.09,6.06a0.67,0.67,0,0,1,0,.96l-0.96.96a0.67,0.67,0,0,1-.96,0l-7.98-7.98h-0.78v7.49a0.683,0.683,0,0,1-.69.68h-1.38a0.658,0.658,0,0,1-.66-0.68v-17.72a0.66,0.66,0,0,1,.66-0.69h7.52A5.469,5.469,0,0,1,1048.27,1264.72Zm-5.45-2.73h-5.45v5.48h5.45A2.74,2.74,0,0,0,1042.82,1261.99Zm-0.03-15.34a0.389,0.389,0,0,1,.4.4v0.37a0.389,0.389,0,0,1-.4.4h-3.39a0.4,0.4,0,0,1-.4-0.4v-4.9a0.4,0.4,0,0,1,.4-0.4h3.39a0.4,0.4,0,0,1,.4.4v0.38a0.389,0.389,0,0,1-.4.4h-2.61v1.09h1.86a0.393,0.393,0,0,1,.4.39v0.38a0.4,0.4,0,0,1-.4.4h-1.86v1.09h2.61Zm3.48-2.26h0.76a1.715,1.715,0,0,1,0,3.43h-0.76a1.718,1.718,0,0,1-1.72-1.71,0.4,0.4,0,0,1,.4-0.4h0.38a0.4,0.4,0,0,1,.4.4,0.538,0.538,0,0,0,.54.54h0.76a0.538,0.538,0,0,0,.54-0.54,0.546,0.546,0,0,0-.54-0.55h-0.76a1.72,1.72,0,1,1,0-3.44h0.76a1.718,1.718,0,0,1,1.71,1.72,0.389,0.389,0,0,1-.4.4h-0.37a0.389,0.389,0,0,1-.4-0.4,0.538,0.538,0,0,0-.54-0.54h-0.76a0.538,0.538,0,0,0-.54.54A0.546,0.546,0,0,0,1046.27,1244.39Zm40.93,2.26a0.389,0.389,0,0,1,.4.4v0.37a0.389,0.389,0,0,1-.4.4h-3.39a0.389,0.389,0,0,1-.4-0.4v-4.9a0.4,0.4,0,0,1,.4-0.4h3.39a0.4,0.4,0,0,1,.4.4v0.38a0.389,0.389,0,0,1-.4.4h-2.61v1.09h1.86a0.393,0.393,0,0,1,.4.39v0.38a0.4,0.4,0,0,1-.4.4h-1.86v1.09h2.61Zm11.1,0a0.389,0.389,0,0,1,.4.4v0.37a0.389,0.389,0,0,1-.4.4h-3.39a0.4,0.4,0,0,1-.4-0.4v-4.9a0.4,0.4,0,0,1,.4-0.4h3.39a0.4,0.4,0,0,1,.4.4v0.38a0.389,0.389,0,0,1-.4.4h-2.61v1.09h1.86a0.387,0.387,0,0,1,.4.39v0.38a0.4,0.4,0,0,1-.4.4h-1.86v1.09h2.61Zm5.18-4.53h0.37a0.4,0.4,0,0,1,.41.4v3.27a0.375,0.375,0,0,1-.14.3l-1.68,1.69a0.361,0.361,0,0,1-.28.11,0.393,0.393,0,0,1-.28-0.11l-1.7-1.7a0.417,0.417,0,0,1-.11-0.29v-3.27a0.393,0.393,0,0,1,.39-0.4h0.38a0.4,0.4,0,0,1,.4.4v2.97l0.92,0.92,0.92-.92v-2.96A0.4,0.4,0,0,1,1103.48,1242.12Zm5.93,4.53a0.4,0.4,0,0,1,.4.4v0.37a0.4,0.4,0,0,1-.4.4h-3.4a0.387,0.387,0,0,1-.39-0.4v-4.9a0.393,0.393,0,0,1,.39-0.4h3.4a0.4,0.4,0,0,1,.4.4v0.38a0.4,0.4,0,0,1-.4.4h-2.62v1.09h1.86a0.387,0.387,0,0,1,.4.39v0.38a0.4,0.4,0,0,1-.4.4h-1.86v1.09h2.62Zm3.7,28.99a0.673,0.673,0,0,1,.69.69v1.35a0.671,0.671,0,0,1-.69.68h-12.28a0.664,0.664,0,0,1-.66-0.68v-1.35a0.667,0.667,0,0,1,.66-0.69h4.79v-13.65h-2.06a0.653,0.653,0,0,1-.66-0.66v-1.37a0.66,0.66,0,0,1,.66-0.69h6.83a0.665,0.665,0,0,1,.68.69v1.37a0.658,0.658,0,0,1-.68.66h-2.04v13.65h4.76Zm5.48,2.72h-1.37a0.666,0.666,0,0,1-.67-0.68v-12.96a5.471,5.471,0,0,1,5.46-5.45h2.72a5.463,5.463,0,0,1,5.45,5.45v12.96a0.665,0.665,0,0,1-.69.68h-1.35a0.662,0.662,0,0,1-.68-0.68v-7.49h-8.18v7.49A0.683,0.683,0,0,1,1118.59,1278.36Zm8.87-10.89v-2.75a2.74,2.74,0,0,0-2.73-2.73h-2.72a2.74,2.74,0,0,0-2.73,2.73v2.75h8.18Zm-56.72,70.77-57.43-33.14a1.584,1.584,0,1,1,1.59-2.74l57.42,33.14a3.985,3.985,0,0,0,3.98,0l56.63-32.68v-15.03a1.585,1.585,0,1,1,3.17,0v15.94a1.571,1.571,0,0,1-.79,1.37l-57.43,33.14A7.118,7.118,0,0,1,1070.74,1338.24Zm-60.31-28.8a0.738,0.738,0,0,1,1.01-.28l57.42,33.14a0.731,0.731,0,0,1,.27,1.01,0.719,0.719,0,0,1-.64.37,0.839,0.839,0,0,1-.37-0.09l-57.42-33.14A0.731,0.731,0,0,1,1010.43,1309.44Zm128.78-79.75a0.764,0.764,0,0,1-.64.37,0.787,0.787,0,0,1-.37-0.1l-57.43-33.14a0.748,0.748,0,0,1-.27-1.01,0.731,0.731,0,0,1,1.01-.27l57.43,33.14A0.744,0.744,0,0,1,1139.21,1229.69Zm5.32,29.58h1.35a0.665,0.665,0,0,1,.68.69v17.72a0.662,0.662,0,0,1-.68.68h-1.35a0.665,0.665,0,0,1-.69-0.68v-2.85l-8.18-8.2v11.05a0.683,0.683,0,0,1-.69.68h-1.37a0.658,0.658,0,0,1-.66-0.68v-17.72a0.66,0.66,0,0,1,.66-0.69h1.37a0.685,0.685,0,0,1,.69.69v2.87l8.18,8.17v-11.04A0.667,0.667,0,0,1,1144.53,1259.27Z" transform="translate(-1001.88 -1195.44)"/>
</svg>

