<svg xmlns="http://www.w3.org/2000/svg" width="167.469" height="140.379" viewBox="0 0 167.469 140.379">
  <defs>
    <style>
      .cls-1 {
        fill: #fff;
        fill-rule: evenodd;
      }
    </style>
  </defs>
  <path id="P21.svg" class="cls-1" d="M649.228,1073.18H636.311a0.345,0.345,0,0,1-.35-0.35v-30.12a0.352,0.352,0,0,1,.35-0.35h12.353a0.352,0.352,0,0,1,.35.35v3.66a0.352,0.352,0,0,1-.35.35h-8.341v9.03h6.933a0.352,0.352,0,0,1,.35.35v3.66a0.346,0.346,0,0,1-.35.35h-6.933v8.71h8.9a0.352,0.352,0,0,1,.35.35v3.66A0.346,0.346,0,0,1,649.228,1073.18Zm-17.637,0h-3.662a0.346,0.346,0,0,1-.35-0.35v-12.92h-6.1v12.92a0.346,0.346,0,0,1-.35.35h-3.662a0.346,0.346,0,0,1-.35-0.35v-30.04a0.352,0.352,0,0,1,.35-0.35h3.662a0.352,0.352,0,0,1,.35.35v12.92h6.1v-12.92a0.352,0.352,0,0,1,.35-0.35h3.662a0.352,0.352,0,0,1,.35.35v30.04A0.346,0.346,0,0,1,631.591,1073.18Zm-18.84-61.34h-1.737l2.707-8.23v-0.13H612.29v0.99h-1.647v-2.6h4.725l-0.012,2.03Zm-6.926.01-1.443-1.49v-1.6h1.648v0.95l0.487,0.51h0.612l0.558-.55v-1.77h-1.861l-1.532-1.58v-2.87l1.532-1.58H607.8l1.518,1.58v6.9l-1.522,1.5h-1.975Zm1.862-7.75-0.576-.61h-0.593l-0.576.61v1.57l0.576,0.6h1.169v-2.17Zm1.14,38.09,4.386,4.58a0.356,0.356,0,0,1,.1.24v4.55a0.352,0.352,0,0,1-.35.35H609.3a0.352,0.352,0,0,1-.35-0.35v-2.96l-2.092-2.16H604.54l-2.054,2.16v18.07l2.1,2.35h2.223l2.139-2.35v-3.21a0.357,0.357,0,0,1,.346-0.35l3.662-.04a0.372,0.372,0,0,1,.25.1,0.364,0.364,0,0,1,.1.25v4.75l-0.09.23-4.386,4.87a0.358,0.358,0,0,1-.26.11H602.82a0.36,0.36,0,0,1-.261-0.11l-4.346-4.87-0.088-.23v-21.16a0.351,0.351,0,0,1,.1-0.24l4.385-4.58a0.347,0.347,0,0,1,.253-0.11h5.714A0.347,0.347,0,0,1,608.827,1042.19Zm-9.653-30.34-1.443-1.49v-1.6h1.647v0.95l0.488,0.51h0.611l0.559-.55v-1.77h-1.862l-1.532-1.58v-2.87l1.532-1.58h1.978l1.519,1.58v6.9l-1.522,1.5h-1.975Zm1.862-7.75-0.577-.61h-0.592l-0.577.61v1.57l0.577,0.6h1.169v-2.17Zm-8.922,6.17h1.426v-6.74h-1.325v-1.64h2.973v8.38h1.425v1.56h-4.5v-1.56Zm3.257,62.79a0.341,0.341,0,0,1-.265.12h-3.7a0.344,0.344,0,0,1-.346-0.3l-1.123-7.54h-5.674l-1.122,7.54a0.344,0.344,0,0,1-.346.3h-3.7a0.338,0.338,0,0,1-.265-0.12,0.348,0.348,0,0,1-.081-0.28l4.466-30.12a0.353,0.353,0,0,1,.346-0.3h7.082a0.352,0.352,0,0,1,.346.3l4.467,30.12A0.355,0.355,0,0,1,595.371,1073.06Zm-8.212-26.34H587l-2.109,14.26h4.418Zm-11.571-19.32H554.644a5.132,5.132,0,0,1-5.145-5.14V991.573a10.936,10.936,0,0,1,6.943-10.18l0.6-.234a5.984,5.984,0,0,0,3.8-5.569v-1.23a0.568,0.568,0,0,0-.347-0.524l-0.222-.044a0.568,0.568,0,0,1-.568-0.569v-4.295h0a1.4,1.4,0,0,1,1.4-1.4h8.026a1.4,1.4,0,0,1,1.4,1.4v4.295a0.569,0.569,0,0,1-.569.569,0.568,0.568,0,0,0-.568.568v1.23a5.985,5.985,0,0,0,3.8,5.569l0.6,0.234a10.936,10.936,0,0,1,6.942,10.18v30.687A5.141,5.141,0,0,1,575.588,1027.4Zm-18.029-42.077a0.973,0.973,0,0,0-1.262-.55,6.678,6.678,0,0,0-4.264,6.251,0.974,0.974,0,1,0,1.948,0,4.741,4.741,0,0,1,3.028-4.439A0.974,0.974,0,0,0,557.559,985.323Zm2.9-2.746-1.469.7a0.973,0.973,0,0,0,.42,1.851,0.964,0.964,0,0,0,.42-0.1l1.47-.7A0.974,0.974,0,0,0,560.461,982.577Zm8.215-13.21h-7.119a0.487,0.487,0,1,0,0,.974h7.119A0.487,0.487,0,0,0,568.676,969.367Zm-6.378,4.472a0.487,0.487,0,0,0,.487.487h4.678a0.487,0.487,0,0,0,0-.974h-4.678A0.487,0.487,0,0,0,562.3,973.839Zm2.818,17.7a12.133,12.133,0,1,0,12.14,12.135A12.138,12.138,0,0,0,565.116,991.535Zm0,21.625a0.49,0.49,0,0,1,0-.98,8.525,8.525,0,0,0,8.519-8.51,0.487,0.487,0,1,1,.974,0A9.5,9.5,0,0,1,565.116,1013.16Zm4.814-6.63a4.069,4.069,0,0,1-1.629.33,4.5,4.5,0,0,1-3.185-1.33,4.493,4.493,0,0,1-3.185,1.33,4.064,4.064,0,0,1-1.628-.33,4.268,4.268,0,0,1-2.464-4.96,0.973,0.973,0,0,1,.945-0.74l0.115,0.01a0.968,0.968,0,0,1,.859.96,0.714,0.714,0,0,0,.7.7,0.815,0.815,0,0,0,.687-0.47,2.809,2.809,0,0,1,2.447-1.55,2.592,2.592,0,0,1,1.021.21,0.573,0.573,0,0,0,1,0,2.587,2.587,0,0,1,1.02-.21,2.809,2.809,0,0,1,2.447,1.55,0.816,0.816,0,0,0,.687.47,0.714,0.714,0,0,0,.705-0.7,0.969,0.969,0,0,1,.86-0.96l0.115-.01a0.972,0.972,0,0,1,.944.74A4.267,4.267,0,0,1,569.93,1006.53Zm1.518-4.73a1.671,1.671,0,0,1-1.015,1.53,1.615,1.615,0,0,1-.664.15,1.782,1.782,0,0,1-1.545-.99,1.867,1.867,0,0,0-1.589-1.04,1.63,1.63,0,0,0-.634.14,0.886,0.886,0,1,1-1.769,0,1.639,1.639,0,0,0-.635-0.14,1.867,1.867,0,0,0-1.588,1.04,1.783,1.783,0,0,1-1.546.99,1.618,1.618,0,0,1-.664-0.15,1.673,1.673,0,0,1-1.015-1.53,3.324,3.324,0,0,0,1.9,3.84,3.129,3.129,0,0,0,1.242.25,3.364,3.364,0,0,0,3.162-2.1l0.023-.07,0.023,0.07a3.365,3.365,0,0,0,3.162,2.1,3.134,3.134,0,0,0,1.243-.25A3.323,3.323,0,0,0,571.448,1001.8Zm0.183-2.206a0.486,0.486,0,0,1-.487-0.486V998.25l-1.727,1.726a0.484,0.484,0,0,1-.689,0,0.486,0.486,0,0,1,0-.688l1.665-1.663H569.66a0.487,0.487,0,0,1,0-.973h1.971a0.486,0.486,0,0,1,.487.486v1.97A0.486,0.486,0,0,1,571.631,999.594Zm-6.515-4.44a8.528,8.528,0,0,0-8.519,8.516,0.487,0.487,0,1,1-.974,0,9.5,9.5,0,0,1,9.493-9.489A0.487,0.487,0,1,1,565.116,995.154Zm-4.794,12.536a0.487,0.487,0,0,1,.688.69l-2.588,2.59a0.493,0.493,0,0,1-.688,0,0.489,0.489,0,0,1,0-.69Zm-9.258,34.47H556.7a0.347,0.347,0,0,1,.253.11l4.306,4.5,0.1,0.24v4.63a0.352,0.352,0,0,1-.35.35h-3.622a0.352,0.352,0,0,1-.35-0.35v-3l-2.053-2.16h-2.233l-2.015,2.16v3.86l10.635,7.46a0.337,0.337,0,0,1,.149.28v8.13l-0.1.24-4.426,4.67a0.384,0.384,0,0,1-.254.1h-5.755a0.382,0.382,0,0,1-.253-0.1l-4.427-4.67-0.1-.24v-5.51a0.352,0.352,0,0,1,.35-0.35h3.622a0.352,0.352,0,0,1,.35.35v3.92l2.174,2.29h2.356l2.174-2.29v-4.46l-10.675-7.46a0.354,0.354,0,0,1-.15-0.29v-7.56l0.1-.24,4.305-4.5A0.347,0.347,0,0,1,551.064,1042.16Zm-12.886,31.07a0.359,0.359,0,0,1-.261.11h-5.673a0.36,0.36,0,0,1-.261-0.11l-4.345-4.83-0.09-.23v-25.5a0.352,0.352,0,0,1,.35-0.35h3.662a0.352,0.352,0,0,1,.35.35v24l2.1,2.31h2.1l2.1-2.31v-24a0.352,0.352,0,0,1,.35-0.35h3.662a0.352,0.352,0,0,1,.35.35v25.5l-0.089.23Zm-4.942-61.4v-9.92h3.369l1.559,1.56v6.79l-1.559,1.57h-3.369Zm3.28-7.69-0.6-.58h-1.036v6.62h1.034l0.6-.6v-5.44Zm-6.327,7.69h-1.648v-8.42h-1.665v-1.54h4.99v1.54h-1.677v8.42Zm-7.93.06-1.53-1.61v-2.08h1.635v1.43l0.6,0.63h0.618l0.6-.63v-1.27l-3.393-2.37v-2.61l1.493-1.56h1.979l1.493,1.56v1.8h-1.635v-1.13l-0.564-.59H522.98l-0.553.59v1.08l3.381,2.37v2.78l-1.53,1.61h-2.019Zm-7.336-10h4.372v1.64h-2.724v2.55h2.283v1.65h-2.283v2.45h2.9v1.65h-4.549v-9.94Zm4.012,40.17,4.547,4.54a0.371,0.371,0,0,1,.1.25v21.28l-0.095.24-4.546,4.82a0.354,0.354,0,0,1-.255.11h-5.795a0.35,0.35,0,0,1-.255-0.11l-4.507-4.82-0.094-.24v-21.28a0.371,0.371,0,0,1,.1-0.25l4.547-4.54a0.331,0.331,0,0,1,.247-0.1h5.755A0.331,0.331,0,0,1,518.935,1042.06Zm-4.368,4.22-2.209,2.2v18.1l2.256,2.4h2.353l2.256-2.4v-18.1l-2.209-2.2h-2.447Zm-10.787,26.86h-3.662a0.346,0.346,0,0,1-.35-0.35V1048l-3.408,22.31a0.355,0.355,0,0,1-.346.3h-4.668a0.353,0.353,0,0,1-.346-0.3L487.592,1048v24.79a0.346,0.346,0,0,1-.35.35H483.58a0.346,0.346,0,0,1-.35-0.35v-30.08a0.352,0.352,0,0,1,.35-0.35h7.2a0.352,0.352,0,0,1,.346.3l1.73,11.78,0.838,7.81,0.8-7.63,1.732-11.96a0.352,0.352,0,0,1,.346-0.3h7.2a0.352,0.352,0,0,1,.35.35v30.08A0.346,0.346,0,0,1,503.78,1073.14Zm69.3,0.04h-3.662a0.346,0.346,0,0,1-.35-0.35v-26.51h-4.961a0.352,0.352,0,0,1-.35-0.35v-3.3a0.352,0.352,0,0,1,.35-0.35H578.43a0.352,0.352,0,0,1,.35.35v3.3a0.352,0.352,0,0,1-.35.35h-5v26.51A0.345,0.345,0,0,1,573.078,1073.18Zm45.124,34.71a2.388,2.388,0,0,1-2.245-1.27l1.09-.78a1.3,1.3,0,0,0,1.165.8,0.689,0.689,0,0,0,.738-0.7c0-.99-2.557-1.37-2.557-3.15a1.741,1.741,0,0,1,1.79-1.71,1.874,1.874,0,0,1,1.648.88l-0.909.81a0.872,0.872,0,0,0-.682-0.46,0.47,0.47,0,0,0-.483.49c0,0.83,2.548,1.25,2.548,3.12A1.967,1.967,0,0,1,618.2,1107.89Zm-7.564-.09h-1.25v-6.62h1.241l1.923,2.75c0.113,0.18.227,0.39,0.255,0.44,0-.03-0.019-0.3-0.019-0.51v-2.68h1.279v6.62h-1.279v-1.44l-1.875-2.58a5.213,5.213,0,0,1-.3-0.49s0.028,0.32.028,0.57v3.94Zm-3.329-3.31a3.405,3.405,0,1,1-3.4-3.4A3.415,3.415,0,0,1,607.309,1104.49Zm-5.408,0a2.007,2.007,0,1,0,2.008-2.13A2,2,0,0,0,601.9,1104.49Zm-6.3-2.19v-1.12h3v1.12h-0.824v4.39h0.824v1.11h-3v-1.11h0.824v-4.39h-0.824Zm-4.335,5.5v-5.37H590v-1.25h3.9v1.25h-1.269v5.37H591.27Zm-2.5-3.31a3.406,3.406,0,1,1-3.4-3.4A3.415,3.415,0,0,1,588.775,1104.49Zm-5.409,0a2.007,2.007,0,1,0,2.008-2.13A2,2,0,0,0,583.366,1104.49Zm-2.459,2.08v1.23h-3.685v-6.62h1.345v5.39h2.34Zm-9.551.03v1.2H567.32v-6.62h4.036v1.2h-2.691v1.32h1.885v1.2h-1.885v1.7h2.691Zm-11.23,1.2v-6.62h1.364v2.29H563.5v-2.29h1.364v6.62H563.5v-3.08H561.49v3.08h-1.364Zm-4.693-1.2a2.145,2.145,0,0,0,1.572-.78l1.042,0.83a3.25,3.25,0,0,1-2.605,1.25,3.405,3.405,0,0,1,0-6.81,3.235,3.235,0,0,1,2.539,1.17l-1,.88a2.125,2.125,0,0,0-1.544-.75A2.108,2.108,0,0,0,555.433,1106.6Zm-4.609,1.2h-1.44l-0.455-1.57H546.94l-0.464,1.57h-1.44l2.141-6.62h1.506Zm-2.406-3.34c-0.18-.65-0.407-1.43-0.483-1.85a16.862,16.862,0,0,1-.474,1.85l-0.208.71h1.364Zm100.15-17.82a1,1,0,0,1-1,1H483.1a1,1,0,0,1,0-2H647.569A1,1,0,0,1,648.568,1086.64ZM516.14,1102.97c-0.019.1-.114,0.58-0.236,1.06l-1.222,3.77h-1.175l-1.232-3.77c-0.132-.46-0.227-0.94-0.246-1.06,0,0.06-.009.58-0.057,1.09l-0.417,3.74h-1.449l0.919-6.62h1.667l1.26,3.98c0.066,0.26.124,0.59,0.133,0.65a5.838,5.838,0,0,1,.133-0.64l1.278-3.99h1.667l0.919,6.62h-1.449l-0.417-3.74A10.576,10.576,0,0,1,516.14,1102.97Zm3.546,1.52a3.406,3.406,0,1,1,3.41,3.41A3.409,3.409,0,0,1,519.686,1104.49Zm5.409,0a2.008,2.008,0,1,0-2,2.14A2,2,0,0,0,525.1,1104.49Zm8.017-3.31v4.27a2.3,2.3,0,1,1-4.594,0v-4.27h1.365v4.35a0.949,0.949,0,1,0,1.866,0v-4.35h1.363Zm4.078,6.71a2.387,2.387,0,0,1-2.244-1.27l1.089-.78a1.306,1.306,0,0,0,1.165.8,0.69,0.69,0,0,0,.739-0.7c0-.99-2.557-1.37-2.557-3.15a1.741,1.741,0,0,1,1.79-1.71,1.876,1.876,0,0,1,1.648.88l-0.91.81a0.872,0.872,0,0,0-.682-0.46,0.47,0.47,0,0,0-.483.49c0,0.83,2.549,1.25,2.549,3.12A1.967,1.967,0,0,1,537.19,1107.89Zm4.4-.09v-5.37h-1.27v-1.25h3.9v1.25h-1.269v5.37h-1.364Z" transform="translate(-482.094 -967.531)"/>
</svg>

