<svg xmlns="http://www.w3.org/2000/svg" width="205.407" height="111.652" viewBox="0 0 205.407 111.652">
  <defs>
    <style>
      .cls-1 {
        fill: #fff;
        fill-rule: evenodd;
      }
    </style>
  </defs>
  <path id="P23.svg" class="cls-1" d="M1173.35,1057.61a6.883,6.883,0,0,1-2.14-.37l-4.43-1.49,3.7-11.06,4.43,1.48A5.884,5.884,0,0,1,1173.35,1057.61Zm0.69-8.84-1.74-.59-1.96,5.84,1.75,0.59a3.763,3.763,0,0,0,1.15.2,2.928,2.928,0,0,0,2.7-2.25A2.841,2.841,0,0,0,1174.04,1048.77Zm-13.94.96,2.06,3.97-0.17.67-2.93-.74-2.18-4.3-1.35-.34-0.89,3.53-2.76-.7,2.85-11.34,0.39,0.1c0.85,0.22,1.7.43,2.55,0.65,0.82,0.21,1.64.42,2.47,0.63a4,4,0,0,1,3.2,4.94A3.6,3.6,0,0,1,1160.1,1049.73Zm0.36-4.56a1.481,1.481,0,0,0-.99-0.68l-2.64-.67-0.65,2.6,2.64,0.67a2.183,2.183,0,0,0,.49.06,1.272,1.272,0,0,0,1.26-1A1.361,1.361,0,0,0,1160.46,1045.17Zm-11.48,21.43h-31.24a0.75,0.75,0,0,1,0-1.5h31.24A0.75,0.75,0,0,1,1148.98,1066.6Zm-5.57-18.64-5.08-.96-1.29,1.85-3.05-.58,7.3-10.5,2.71,0.51,2.99,12.44-3.06-.58Zm-1.44-6.31-1.98,2.91,2.77,0.52Zm-17.37-3.67-0.23,1.69,5.84,0.79-0.37,2.69-5.84-.8-0.22,1.64,6.05,0.83-0.37,2.79-8.87-1.2,1.57-11.57,8.87,1.2-0.38,2.76Zm-9.59,48.96v1.62h-1v-1.62l-1.41-2.12v-0.2l0.15-.03h0.91l0.85,1.38,0.9-1.38h1.06v0.2l-0.02.07Zm0.18-44.77c-0.19,2.1-1.56,3.21-3.97,3.21a7.444,7.444,0,0,1-.81-0.04l-5.54-.5,1.06-11.63,5.54,0.5a4.776,4.776,0,0,1,2.84,1.11,3.282,3.282,0,0,1,.97,2.81,2.58,2.58,0,0,1-1.16,1.96A3.2,3.2,0,0,1,1115.19,1042.17Zm-7.26.22,2.72,0.25c0.11,0.01.21,0.02,0.32,0.02,0.5,0,1.34-.1,1.4-0.77a0.974,0.974,0,0,0-.44-0.82,2.391,2.391,0,0,0-1.09-.42l-2.73-.25Zm4.31-5.58a1.446,1.446,0,0,0-1.01-.44l-2.73-.25-0.16,1.69,2.73,0.25c0.12,0.01.23,0.02,0.33,0.02,0.99,0,1.03-.5,1.05-0.66A0.867,0.867,0,0,0,1112.24,1036.81Zm-6.68-16.36a4.455,4.455,0,0,1-6.68-.42l-3.08-3.99a92.491,92.491,0,0,0-14.22-14.71l-7.52-6.243-1.12,1.122,3.97,3.971a0.386,0.386,0,0,1,.11.27,0.348,0.348,0,0,1-.11.27,0.423,0.423,0,0,1-.54,0l-3.97-3.973-0.9.9,3.97,3.97a0.38,0.38,0,0,1,0,.54,0.4,0.4,0,0,1-.54,0l-3.97-3.972-0.91.9,3.98,3.969a0.386,0.386,0,0,1,.11.27,0.369,0.369,0,0,1-.11.27,0.4,0.4,0,0,1-.54,0l-3.97-3.97-0.91.9,3.98,3.97a0.4,0.4,0,0,1,.11.27,0.369,0.369,0,0,1-.11.27,0.4,0.4,0,0,1-.54,0l-3.97-3.97-0.91.9,3.98,3.97a0.4,0.4,0,0,1,.11.27,0.369,0.369,0,0,1-.11.27,0.4,0.4,0,0,1-.54,0l-3.98-3.97-0.9.9,3.97,3.98a0.38,0.38,0,0,1,0,.54,0.409,0.409,0,0,1-.53,0l-3.98-3.98-0.9.9,3.97,3.98a0.334,0.334,0,0,1,.11.27,0.362,0.362,0,0,1-.11.27,0.423,0.423,0,0,1-.54,0l-3.97-3.98-0.9.9,3.97,3.98a0.38,0.38,0,0,1,0,.54,0.423,0.423,0,0,1-.54,0l-3.97-3.98-0.9.91,3.97,3.97a0.38,0.38,0,0,1,0,.54,0.423,0.423,0,0,1-.54,0l-3.97-3.98-0.91.91,3.98,3.97a0.38,0.38,0,0,1,0,.54,0.423,0.423,0,0,1-.54,0l-3.98-3.97-0.9.9,3.98,3.97a0.386,0.386,0,0,1,0,.54,0.423,0.423,0,0,1-.54,0l-3.98-3.97-0.9.9,3.98,3.97a0.4,0.4,0,0,1,0,.54,0.423,0.423,0,0,1-.54,0l-3.98-3.97-0.9.9,3.97,3.97a0.373,0.373,0,0,1,.12.27,0.357,0.357,0,0,1-.12.27,0.387,0.387,0,0,1-.53,0l-3.98-3.97-0.9.9,3.97,3.97a0.38,0.38,0,0,1,0,.54,0.387,0.387,0,0,1-.53,0l-3.98-3.97-0.9.9,3.97,3.97a0.386,0.386,0,0,1,0,.54,0.4,0.4,0,0,1-.54,0l-3.97-3.97-0.9.9,3.97,3.97a0.4,0.4,0,0,1,.11.27,0.369,0.369,0,0,1-.11.27,0.38,0.38,0,0,1-.54,0l-3.97-3.97-0.54.53a1.051,1.051,0,0,1-1.39,0l-0.82-.82a4.672,4.672,0,0,1,0-6.6l21.64-21.631v-0.124a3.689,3.689,0,0,1,1.08-2.649,5.688,5.688,0,0,1,4.04-1.673,5.763,5.763,0,0,1,2.06.379l0.2,0.08,0.19-.239a6.173,6.173,0,0,0,.95-6.864,1.118,1.118,0,0,1-.05-0.824,1.061,1.061,0,0,1,.54-0.624,1.1,1.1,0,0,1,1.45.488,8.288,8.288,0,0,1-1.11,9.065l-0.18.208,26.91,26.9a4.466,4.466,0,0,1,0,6.31Zm-33.99-27.426-22.26,22.436a0.6,0.6,0,0,0,0,.84,0.573,0.573,0,0,0,.42.17,0.566,0.566,0,0,0,.41-0.17l22.35-22.516Zm2.83-5.125-0.4.139a1.8,1.8,0,0,0,0,3.395l0.4,0.139V987.9Zm0.81,0.139-0.4-.139v3.673l0.4-.139A1.8,1.8,0,0,0,1075.21,988.038Zm-28.22,47.682-6.08.5,0.14,1.7,5.86-.48,0.22,2.7-5.86.48,0.13,1.64,6.09-.49,0.23,2.8-8.92.73-0.95-11.63,8.91-.72Zm-12.52,48.87h1v3.03h1.88v0.94h-2.88v-3.97Zm-2.55,4.26-0.27-.34-1.66-2.14v2.19H1029v-3.97h0.78l0.05,0.06,1.53,1.94v-2.01h0.99v3.98h-0.43v0.29Zm-5.93-42.03-6.29-11.02,3.14-.4,3.96,7.33,2.02-8.08,3.15-.4-3.34,12.24Zm-11.45-.42-5.09.89-0.57,2.18-3.05.53,3.15-12.4,2.71-.48,7.18,10.6-3.07.54Zm-3.57-5.41-0.83,3.43,2.78-.49Zm-13.7,6.43-4.426,1.04,1.01,4.28-2.777.65-2.682-11.36,2.776-.66,1.054,4.47,4.426-1.05-1.054-4.46,2.762-.65,2.677,11.36-2.756.66Zm-16.528,9.24a7.485,7.485,0,0,1-2.25.38,4.335,4.335,0,0,1-3.493-1.66l-0.23-.28,1.943-1.92,0.278,0.34a2.306,2.306,0,0,0,1.843.8,4.035,4.035,0,0,0,1.162-.18c0.47-.15,1.98-0.71,1.643-1.8a1.072,1.072,0,0,0-1.258-.64,5.969,5.969,0,0,0-1.161.13,11.2,11.2,0,0,1-2.021.22,3.239,3.239,0,0,1-3.492-2.38c-0.722-2.33,1.16-4.07,3.346-4.77,2.168-.66,3.94-0.35,5.132.91l0.27,0.29-1.86,1.82-0.278-.25a2.3,2.3,0,0,0-1.491-.46,3.039,3.039,0,0,0-.946.15,2.581,2.581,0,0,0-1.3.76,0.821,0.821,0,0,0-.161.78c0.1,0.33.435,0.65,2.264,0.31a12.417,12.417,0,0,1,2.045-.21,3.371,3.371,0,0,1,3.618,2.5,3.422,3.422,0,0,1-.6,3.3A6.12,6.12,0,0,1,980.746,1056.66Zm123.894,31.9v-3.98h0.15c0.3,0,.59.01,0.88,0.01h0.87a1.365,1.365,0,0,1,1.47,1.37,1.223,1.223,0,0,1-.8,1.23l0.99,1.12v0.25h-1.05l-1.07-1.23h-0.44v1.23h-1Zm1.9-2.15a0.425,0.425,0,0,0,.48-0.44,0.418,0.418,0,0,0-.48-0.43h-0.9v0.87h0.9Zm-5.93-1.89a1.991,1.991,0,0,1,1.45.56,2.106,2.106,0,0,1,.58,1.52,2.035,2.035,0,1,1-4.07,0A1.978,1.978,0,0,1,1100.61,1084.52Zm0,3.19a1.02,1.02,0,0,0,1.05-1.11,1.221,1.221,0,0,0-.31-0.87,1.131,1.131,0,0,0-1.49,0,1.246,1.246,0,0,0-.31.88A1.036,1.036,0,0,0,1100.61,1087.71Zm-6.89.85v-3.96h2.94v0.96h-1.95v0.7h1.84v0.94h-1.84v1.36h-0.99Zm-4.87-.98v0.98h-3.05v-3.97h3.05v0.97h-2.06v0.55h1.99v0.94h-1.99v0.53h2.06Zm-48.53-2.99v3.97h-0.99v-3.97h0.99Zm5.54-.01v3.98h-0.43v0.29l-0.26-.34-1.67-2.14v2.19h-0.99v-3.97h0.78l0.05,0.06,1.53,1.94v-2.01h0.99Zm5.17,3v0.98h-3.05v-3.97h3.05v0.97h-2.07v0.55h1.99v0.94h-1.99v0.53h2.07Zm6.48-1.56a1.468,1.468,0,0,1,1.62,1.32,1.433,1.433,0,0,1-1.7,1.32,1.677,1.677,0,0,1-1.74-1l-0.05-.13,0.85-.43,0.06,0.15a0.906,0.906,0,0,0,.89.49c0.17,0,.7-0.03.7-0.4,0-.08,0-0.32-0.72-0.4-0.78-.09-1.58-0.31-1.58-1.26a1.384,1.384,0,0,1,1.58-1.22,1.63,1.63,0,0,1,1.58.82l0.06,0.13-0.81.41-0.07-.12a0.911,0.911,0,0,0-.74-0.33c-0.38,0-.61.12-0.61,0.34C1056.83,1085.87,1057.03,1085.96,1057.51,1086.02Zm6.68,1.56v0.98h-3.05v-3.97h3.05v0.97h-2.06v0.55h1.98v0.94h-1.98v0.53h2.06Zm5.58,0.98h-1.04l-1.07-1.23h-0.45v1.23h-1v-3.98h0.15c0.3,0,.59.01,0.88,0.01h0.87a1.365,1.365,0,0,1,1.47,1.37,1.223,1.223,0,0,1-.8,1.23l0.99,1.12v0.25Zm-1.66-3.02h-0.9v0.87h0.9a0.425,0.425,0,0,0,.48-0.44A0.418,0.418,0,0,0,1068.11,1085.54Zm4.75,3.04-1.65-3.99h1.11l1,2.59,1.01-2.59h1.1l-1.65,3.99h-0.92Zm4.42-3.99h0.98v3.97h-0.98v-3.97Zm5.11,3.11a1.21,1.21,0,0,0,.82-0.33l0.11-.11,0.68,0.69-0.11.11a2.1,2.1,0,0,1-1.5.58,1.94,1.94,0,0,1-2.09-2.04,1.974,1.974,0,0,1,2.09-2.08,2.084,2.084,0,0,1,1.46.6l0.1,0.11-0.67.65-0.11-.1a1.113,1.113,0,0,0-.78-0.3,1.086,1.086,0,0,0-.8.3,1.116,1.116,0,0,0-.31.82A1.032,1.032,0,0,0,1082.39,1087.7Zm-57.48.94a1.937,1.937,0,0,1-2.04-2.04,2.073,2.073,0,0,1,3.49-1.52,2.156,2.156,0,0,1,.59,1.52A1.948,1.948,0,0,1,1024.91,1088.64Zm0.74-2.91a0.972,0.972,0,0,0-.74-0.28,0.987,0.987,0,0,0-.74.28,1.2,1.2,0,0,0-.31.88,1.02,1.02,0,0,0,1.05,1.1,1.036,1.036,0,0,0,1.06-1.11A1.227,1.227,0,0,0,1025.65,1085.73Zm-26.745-19.88a0.746,0.746,0,0,1,.75-0.75h31.235a0.75,0.75,0,0,1,0,1.5H999.655A0.753,0.753,0,0,1,998.905,1065.85Zm42.875,1.78,5.29-9.14a4.064,4.064,0,0,1,3.25-2.31c3.92,0,3.61,4.97-.35,6.31,3.77,2.52,1.05,9.56-4.82,9.56-6.88,0-8.09-7.57-3.97-10.2l0.79,1a4.2,4.2,0,0,0-.94,5.9A7.261,7.261,0,0,0,1041.78,1067.63Zm9.32-7.93c0.98-1.85-.85-3.31-2.29-0.83l-1.59,2.72C1049.23,1061.55,1050.34,1061.12,1051.1,1059.7Zm-5.99,10.84c4.76,0,6.59-6.78,1.98-7.74l-0.53-.06-3.3,5.72a11.141,11.141,0,0,1-.99,1.4A5.648,5.648,0,0,0,1045.11,1070.54Zm16.89-26.7-0.17-11.67,2.97-.05,3.26,4.35,3.14-4.44,2.95-.05,0.17,11.68-2.85.04-0.1-7.09-2.89,3.96-0.81.02-2.92-3.88,0.11,7.09Zm27.95,15.35a1.127,1.127,0,0,1-1.15,1.13,1.11,1.11,0,0,1-1.13-1.13,1.127,1.127,0,0,1,1.13-1.15A1.144,1.144,0,0,1,1089.95,1059.19Zm-9.66-27.07,0.41-.08,2.66,0.07,2.43,4.21,2.78-4.06,3.09,0.09-0.02.52-0.07.2-4.44,6.06-0.14,4.76-2.85-.08,0.14-4.77-4-6.4Zm20.59,37.63c0.87,0,2.25-1.31,3.67-2.95l0.13-.15h0l5.48-9.48h1.97l-6.62,11.5c-0.45.78-.2,1.08,0.23,1.08,0.87,0,2.25-1.31,3.67-2.95l0.13-.15a1.792,1.792,0,0,1,.74.68c-1.63,1.89-3.5,3.63-5.12,3.63a1.524,1.524,0,0,1-1.71-1.6,5.281,5.281,0,0,1-3.16,1.6,1.533,1.533,0,0,1-1.68-1.89c-0.94.9-2.15,1.89-3.23,1.89-1.01,0-1.5-.75-1.2-1.9a9.513,9.513,0,0,1-4.81,1.54,2.421,2.421,0,0,1-.23,1.98l-1.47,2.59c-2.1,3.68-5.12,1.59-3.61-1.04l2.45-4.26a4.422,4.422,0,0,1-2.53,1.09,1.511,1.511,0,0,1-1.7-1.6,5.281,5.281,0,0,1-3.16,1.6,1.511,1.511,0,0,1-1.7-1.6,5.281,5.281,0,0,1-3.16,1.6,1.529,1.529,0,0,1-1.68-1.89c-0.94.9-2.15,1.89-3.23,1.89a1.226,1.226,0,0,1-1.27-1.56,5.177,5.177,0,0,1-3.1,1.56,1.522,1.522,0,0,1-1.7-1.29,4.8,4.8,0,0,1-2.72,1.29,1.528,1.528,0,0,1-1.71-1.72,6.786,6.786,0,0,1-4.1,1.72c-2.32,0-3.38-1.93-2.15-4.03l2.06-3.53a4.151,4.151,0,0,1,3.68-2.27c1.61,0,2.63,1.36,1.57,3.18l-0.28.49c-1.48,2.55-3.86,2.79-5.12,2.27l-0.19.34c-0.91,1.58-.19,2.34,1.02,2.34,1.38,0,3.19-1.31,4.61-2.95l0.13-.15h0.01l1.88-3.25a4.376,4.376,0,0,1,3.37-2.27,2.056,2.056,0,0,1,2.06,1.99h1.11l-3.17,5.55c-0.46.78-.21,1.08,0.22,1.08,0.87,0,2.25-1.31,3.67-2.95l0.13-.15h0.01l3.08-5.33h1.96l-3.83,6.69c-0.25.42-.74,1.15-0.25,1.36,0.38,0.17,1.53-.59,3.03-1.95l3.49-6.1h1.97l-4.2,7.35c-0.45.78-.21,1.08,0.23,1.08,0.87,0,2.25-1.31,3.66-2.95l0.14-.15h0l3.08-5.33h-1.8l0.57-.94h1.78l1.85-3.21h1.97l-1.86,3.21h1.63l-0.57.94h-1.6l-4.22,7.35c-0.45.78-.21,1.08,0.23,1.08,0.87,0,2.25-1.31,3.67-2.95l0.13-.15h0l3.08-5.33h1.96l-4.21,7.35c-0.45.78-.21,1.08,0.23,1.08,0.87,0,2.25-1.31,3.66-2.95l0.14-.15h0l3.82-6.63c2.56-4.46,6.82-3.19,4.55.74l-3.16,5.46a9.722,9.722,0,0,1-3.96,3.53,8.071,8.071,0,0,0,5.65-2.95l0.13-.15h0l3.08-5.33h1.97l-3.84,6.69c-0.25.42-.74,1.15-0.25,1.36,0.38,0.17,1.53-.59,3.03-1.95l3.49-6.1h1.97l-4.2,7.35C1100.2,1069.45,1100.45,1069.75,1100.88,1069.75Zm-42.86-4.95,0.28-.49c1.18-2.04-.83-2.36-1.96-0.42l-1.27,2.21A2.356,2.356,0,0,0,1058.02,1064.8Zm7.83-.49c0.96-1.78-1.14-2.25-2.19-.42l-2.74,4.78c-0.46.78-.21,1.08,0.22,1.08,0.82,0,1.99-.89,3.18-2.76Zm22.2,6.33h-0.17l-2.23,3.81c-0.82,1.38,0,1.72.68,0.55l1.64-2.89C1088.37,1071.37,1088.37,1070.84,1088.05,1070.64Zm4.34-5.2,3.06-5.31c0.97-1.77-.39-1.85-1.45-0.02l-5.33,9.15A9.2,9.2,0,0,0,1092.39,1065.44Zm25.71,21.16a2.073,2.073,0,0,1,3.49-1.52,2.106,2.106,0,0,1,.58,1.52A2.035,2.035,0,1,1,1118.1,1086.6Zm3.09,0a1.221,1.221,0,0,0-.31-0.87,0.987,0.987,0,0,0-.74-0.28,1.011,1.011,0,0,0-.75.28,1.246,1.246,0,0,0-.31.88,1.036,1.036,0,0,0,1.06,1.1A1.02,1.02,0,0,0,1121.19,1086.6Zm6.5-2v2.25a1.642,1.642,0,0,1-1.74,1.79,1.672,1.672,0,0,1-1.78-1.79v-2.25h0.99v2.25a0.75,0.75,0,0,0,.8.86,0.738,0.738,0,0,0,.74-0.86v-2.25h0.99Z" transform="translate(-973.563 -977.188)"/>
</svg>

