<svg xmlns="http://www.w3.org/2000/svg" width="22.62" height="22.965" viewBox="0 0 22.62 22.965">
  <defs>
    <style>
      .cls-1 {
        fill: #fff;
        fill-rule: evenodd;
      }
    </style>
  </defs>
  <path id="LoupePlus.svg" class="cls-1" d="M1213.53,1003.6a0.894,0.894,0,0,1-1.24,0l-5.17-5.17a9.932,9.932,0,1,1,1.27-1.2l5.14,5.134A0.881,0.881,0,0,1,1213.53,1003.6Zm-4.4-12.875a8.1,8.1,0,1,0-8.1,8.087A8.1,8.1,0,0,0,1209.13,990.725ZM1204,992h-2v2a1,1,0,0,1-2,0v-2h-2a1,1,0,0,1,0-2h2v-2a1,1,0,0,1,2,0v2h2A1,1,0,0,1,1204,992Z" transform="translate(-1191.19 -980.875)"/>
</svg>
